<svg xmlns="http://www.w3.org/2000/svg" xmlns:xlink="http://www.w3.org/1999/xlink" width="50" zoomAndPan="magnify" viewBox="0 0 37.5 37.499999" height="50" preserveAspectRatio="xMidYMid meet" version="1.0"><defs><clipPath id="aa77d38ec5"><path d="M 0.617188 8.640625 L 6 8.640625 L 6 14 L 0.617188 14 Z M 0.617188 8.640625 " clip-rule="nonzero"/></clipPath><clipPath id="f37561097d"><path d="M 8 8.640625 L 14 8.640625 L 14 14 L 8 14 Z M 8 8.640625 " clip-rule="nonzero"/></clipPath><clipPath id="3c89b8381b"><path d="M 16 8.640625 L 21 8.640625 L 21 14 L 16 14 Z M 16 8.640625 " clip-rule="nonzero"/></clipPath><clipPath id="3157785af8"><path d="M 24 8.640625 L 29 8.640625 L 29 14 L 24 14 Z M 24 8.640625 " clip-rule="nonzero"/></clipPath><clipPath id="492fcfddc7"><path d="M 31 8.640625 L 36.617188 8.640625 L 36.617188 14 L 31 14 Z M 31 8.640625 " clip-rule="nonzero"/></clipPath><clipPath id="37566ac7a0"><path d="M 0.617188 16 L 6 16 L 6 22 L 0.617188 22 Z M 0.617188 16 " clip-rule="nonzero"/></clipPath><clipPath id="866ba31559"><path d="M 31 16 L 36.617188 16 L 36.617188 22 L 31 22 Z M 31 16 " clip-rule="nonzero"/></clipPath><clipPath id="029688f514"><path d="M 0.617188 24 L 6 24 L 6 28.890625 L 0.617188 28.890625 Z M 0.617188 24 " clip-rule="nonzero"/></clipPath><clipPath id="87b69f1b27"><path d="M 8 24 L 14 24 L 14 28.890625 L 8 28.890625 Z M 8 24 " clip-rule="nonzero"/></clipPath><clipPath id="1d62040c67"><path d="M 16 24 L 21 24 L 21 28.890625 L 16 28.890625 Z M 16 24 " clip-rule="nonzero"/></clipPath><clipPath id="9f21d61aa7"><path d="M 24 24 L 29 24 L 29 28.890625 L 24 28.890625 Z M 24 24 " clip-rule="nonzero"/></clipPath><clipPath id="fd87addcab"><path d="M 31 24 L 36.617188 24 L 36.617188 28.890625 L 31 28.890625 Z M 31 24 " clip-rule="nonzero"/></clipPath></defs><g clip-path="url(#aa77d38ec5)"><path fill="#5271ff" d="M 5.324219 11.019531 C 5.324219 11.335938 5.265625 11.636719 5.148438 11.929688 C 5.027344 12.21875 4.855469 12.476562 4.636719 12.699219 C 4.414062 12.921875 4.160156 13.09375 3.871094 13.214844 C 3.582031 13.335938 3.28125 13.394531 2.972656 13.394531 C 2.660156 13.394531 2.359375 13.335938 2.070312 13.214844 C 1.78125 13.09375 1.527344 12.921875 1.304688 12.699219 C 1.085938 12.476562 0.914062 12.21875 0.792969 11.929688 C 0.675781 11.636719 0.617188 11.335938 0.617188 11.019531 C 0.617188 10.703125 0.675781 10.402344 0.792969 10.109375 C 0.914062 9.820312 1.085938 9.5625 1.304688 9.339844 C 1.527344 9.117188 1.78125 8.945312 2.070312 8.824219 C 2.359375 8.703125 2.660156 8.644531 2.972656 8.644531 C 3.28125 8.644531 3.582031 8.703125 3.871094 8.824219 C 4.160156 8.945312 4.414062 9.117188 4.636719 9.339844 C 4.855469 9.5625 5.027344 9.820312 5.148438 10.109375 C 5.265625 10.402344 5.324219 10.703125 5.324219 11.019531 Z M 5.324219 11.019531 " fill-opacity="1" fill-rule="nonzero"/></g><g clip-path="url(#f37561097d)"><path fill="#5271ff" d="M 13.148438 11.019531 C 13.148438 11.335938 13.089844 11.636719 12.96875 11.929688 C 12.847656 12.21875 12.679688 12.476562 12.457031 12.699219 C 12.238281 12.921875 11.984375 13.09375 11.695312 13.214844 C 11.40625 13.335938 11.105469 13.394531 10.792969 13.394531 C 10.480469 13.394531 10.179688 13.335938 9.890625 13.214844 C 9.601562 13.09375 9.347656 12.921875 9.128906 12.699219 C 8.90625 12.476562 8.738281 12.21875 8.617188 11.929688 C 8.496094 11.636719 8.4375 11.335938 8.4375 11.019531 C 8.4375 10.703125 8.496094 10.402344 8.617188 10.109375 C 8.738281 9.820312 8.90625 9.5625 9.128906 9.339844 C 9.347656 9.117188 9.601562 8.945312 9.890625 8.824219 C 10.179688 8.703125 10.480469 8.644531 10.792969 8.644531 C 11.105469 8.644531 11.40625 8.703125 11.695312 8.824219 C 11.984375 8.945312 12.238281 9.117188 12.457031 9.339844 C 12.679688 9.5625 12.847656 9.820312 12.96875 10.109375 C 13.089844 10.402344 13.148438 10.703125 13.148438 11.019531 Z M 13.148438 11.019531 " fill-opacity="1" fill-rule="nonzero"/></g><g clip-path="url(#3c89b8381b)"><path fill="#5271ff" d="M 20.96875 11.019531 C 20.96875 11.335938 20.910156 11.636719 20.789062 11.929688 C 20.671875 12.21875 20.5 12.476562 20.28125 12.699219 C 20.058594 12.921875 19.804688 13.09375 19.515625 13.214844 C 19.226562 13.335938 18.925781 13.394531 18.613281 13.394531 C 18.300781 13.394531 18.003906 13.335938 17.714844 13.214844 C 17.425781 13.09375 17.171875 12.921875 16.949219 12.699219 C 16.730469 12.476562 16.558594 12.21875 16.4375 11.929688 C 16.320312 11.636719 16.257812 11.335938 16.257812 11.019531 C 16.257812 10.703125 16.320312 10.402344 16.4375 10.109375 C 16.558594 9.820312 16.730469 9.5625 16.949219 9.339844 C 17.171875 9.117188 17.425781 8.945312 17.714844 8.824219 C 18.003906 8.703125 18.300781 8.644531 18.613281 8.644531 C 18.925781 8.644531 19.226562 8.703125 19.515625 8.824219 C 19.804688 8.945312 20.058594 9.117188 20.28125 9.339844 C 20.5 9.5625 20.671875 9.820312 20.789062 10.109375 C 20.910156 10.402344 20.96875 10.703125 20.96875 11.019531 Z M 20.96875 11.019531 " fill-opacity="1" fill-rule="nonzero"/></g><g clip-path="url(#3157785af8)"><path fill="#5271ff" d="M 28.792969 11.019531 C 28.792969 11.335938 28.734375 11.636719 28.613281 11.929688 C 28.492188 12.21875 28.324219 12.476562 28.101562 12.699219 C 27.882812 12.921875 27.628906 13.09375 27.339844 13.214844 C 27.050781 13.335938 26.75 13.394531 26.4375 13.394531 C 26.125 13.394531 25.824219 13.335938 25.535156 13.214844 C 25.246094 13.09375 24.992188 12.921875 24.773438 12.699219 C 24.550781 12.476562 24.378906 12.21875 24.261719 11.929688 C 24.140625 11.636719 24.082031 11.335938 24.082031 11.019531 C 24.082031 10.703125 24.140625 10.402344 24.261719 10.109375 C 24.378906 9.820312 24.550781 9.5625 24.773438 9.339844 C 24.992188 9.117188 25.246094 8.945312 25.535156 8.824219 C 25.824219 8.703125 26.125 8.644531 26.4375 8.644531 C 26.75 8.644531 27.050781 8.703125 27.339844 8.824219 C 27.628906 8.945312 27.882812 9.117188 28.101562 9.339844 C 28.324219 9.5625 28.492188 9.820312 28.613281 10.109375 C 28.734375 10.402344 28.792969 10.703125 28.792969 11.019531 Z M 28.792969 11.019531 " fill-opacity="1" fill-rule="nonzero"/></g><g clip-path="url(#492fcfddc7)"><path fill="#5271ff" d="M 36.617188 11.019531 C 36.617188 11.335938 36.554688 11.636719 36.4375 11.929688 C 36.316406 12.21875 36.144531 12.476562 35.925781 12.699219 C 35.703125 12.921875 35.449219 13.09375 35.160156 13.214844 C 34.871094 13.335938 34.574219 13.394531 34.261719 13.394531 C 33.949219 13.394531 33.648438 13.335938 33.359375 13.214844 C 33.070312 13.09375 32.816406 12.921875 32.59375 12.699219 C 32.375 12.476562 32.203125 12.21875 32.085938 11.929688 C 31.964844 11.636719 31.90625 11.335938 31.90625 11.019531 C 31.90625 10.703125 31.964844 10.402344 32.085938 10.109375 C 32.203125 9.820312 32.375 9.5625 32.59375 9.339844 C 32.816406 9.117188 33.070312 8.945312 33.359375 8.824219 C 33.648438 8.703125 33.949219 8.644531 34.261719 8.644531 C 34.574219 8.644531 34.871094 8.703125 35.160156 8.824219 C 35.449219 8.945312 35.703125 9.117188 35.925781 9.339844 C 36.144531 9.5625 36.316406 9.820312 36.4375 10.109375 C 36.554688 10.402344 36.617188 10.703125 36.617188 11.019531 Z M 36.617188 11.019531 " fill-opacity="1" fill-rule="nonzero"/></g><g clip-path="url(#37566ac7a0)"><path fill="#5271ff" d="M 5.324219 18.765625 C 5.324219 19.082031 5.265625 19.382812 5.148438 19.675781 C 5.027344 19.964844 4.855469 20.222656 4.636719 20.445312 C 4.414062 20.667969 4.160156 20.839844 3.871094 20.960938 C 3.582031 21.082031 3.28125 21.140625 2.972656 21.140625 C 2.660156 21.140625 2.359375 21.082031 2.070312 20.960938 C 1.78125 20.839844 1.527344 20.667969 1.304688 20.445312 C 1.085938 20.222656 0.914062 19.964844 0.792969 19.675781 C 0.675781 19.382812 0.617188 19.082031 0.617188 18.765625 C 0.617188 18.449219 0.675781 18.148438 0.792969 17.855469 C 0.914062 17.566406 1.085938 17.308594 1.304688 17.085938 C 1.527344 16.863281 1.78125 16.691406 2.070312 16.570312 C 2.359375 16.449219 2.660156 16.390625 2.972656 16.390625 C 3.28125 16.390625 3.582031 16.449219 3.871094 16.570312 C 4.160156 16.691406 4.414062 16.863281 4.636719 17.085938 C 4.855469 17.308594 5.027344 17.566406 5.148438 17.855469 C 5.265625 18.148438 5.324219 18.449219 5.324219 18.765625 Z M 5.324219 18.765625 " fill-opacity="1" fill-rule="nonzero"/></g><path fill="#5271ff" d="M 13.148438 18.765625 C 13.148438 19.082031 13.089844 19.382812 12.96875 19.675781 C 12.847656 19.964844 12.679688 20.222656 12.457031 20.445312 C 12.238281 20.667969 11.984375 20.839844 11.695312 20.960938 C 11.40625 21.082031 11.105469 21.140625 10.792969 21.140625 C 10.480469 21.140625 10.179688 21.082031 9.890625 20.960938 C 9.601562 20.839844 9.347656 20.667969 9.128906 20.445312 C 8.90625 20.222656 8.738281 19.964844 8.617188 19.675781 C 8.496094 19.382812 8.4375 19.082031 8.4375 18.765625 C 8.4375 18.449219 8.496094 18.148438 8.617188 17.855469 C 8.738281 17.566406 8.90625 17.308594 9.128906 17.085938 C 9.347656 16.863281 9.601562 16.691406 9.890625 16.570312 C 10.179688 16.449219 10.480469 16.390625 10.792969 16.390625 C 11.105469 16.390625 11.40625 16.449219 11.695312 16.570312 C 11.984375 16.691406 12.238281 16.863281 12.457031 17.085938 C 12.679688 17.308594 12.847656 17.566406 12.96875 17.855469 C 13.089844 18.148438 13.148438 18.449219 13.148438 18.765625 Z M 13.148438 18.765625 " fill-opacity="1" fill-rule="nonzero"/><path fill="#5271ff" d="M 20.96875 18.765625 C 20.96875 19.082031 20.910156 19.382812 20.789062 19.675781 C 20.671875 19.964844 20.5 20.222656 20.28125 20.445312 C 20.058594 20.667969 19.804688 20.839844 19.515625 20.960938 C 19.226562 21.082031 18.925781 21.140625 18.613281 21.140625 C 18.300781 21.140625 18.003906 21.082031 17.714844 20.960938 C 17.425781 20.839844 17.171875 20.667969 16.949219 20.445312 C 16.730469 20.222656 16.558594 19.964844 16.4375 19.675781 C 16.320312 19.382812 16.257812 19.082031 16.257812 18.765625 C 16.257812 18.449219 16.320312 18.148438 16.4375 17.855469 C 16.558594 17.566406 16.730469 17.308594 16.949219 17.085938 C 17.171875 16.863281 17.425781 16.691406 17.714844 16.570312 C 18.003906 16.449219 18.300781 16.390625 18.613281 16.390625 C 18.925781 16.390625 19.226562 16.449219 19.515625 16.570312 C 19.804688 16.691406 20.058594 16.863281 20.28125 17.085938 C 20.5 17.308594 20.671875 17.566406 20.789062 17.855469 C 20.910156 18.148438 20.96875 18.449219 20.96875 18.765625 Z M 20.96875 18.765625 " fill-opacity="1" fill-rule="nonzero"/><path fill="#5271ff" d="M 28.792969 18.765625 C 28.792969 19.082031 28.734375 19.382812 28.613281 19.675781 C 28.492188 19.964844 28.324219 20.222656 28.101562 20.445312 C 27.882812 20.667969 27.628906 20.839844 27.339844 20.960938 C 27.050781 21.082031 26.75 21.140625 26.4375 21.140625 C 26.125 21.140625 25.824219 21.082031 25.535156 20.960938 C 25.246094 20.839844 24.992188 20.667969 24.773438 20.445312 C 24.550781 20.222656 24.378906 19.964844 24.261719 19.675781 C 24.140625 19.382812 24.082031 19.082031 24.082031 18.765625 C 24.082031 18.449219 24.140625 18.148438 24.261719 17.855469 C 24.378906 17.566406 24.550781 17.308594 24.773438 17.085938 C 24.992188 16.863281 25.246094 16.691406 25.535156 16.570312 C 25.824219 16.449219 26.125 16.390625 26.4375 16.390625 C 26.75 16.390625 27.050781 16.449219 27.339844 16.570312 C 27.628906 16.691406 27.882812 16.863281 28.101562 17.085938 C 28.324219 17.308594 28.492188 17.566406 28.613281 17.855469 C 28.734375 18.148438 28.792969 18.449219 28.792969 18.765625 Z M 28.792969 18.765625 " fill-opacity="1" fill-rule="nonzero"/><g clip-path="url(#866ba31559)"><path fill="#5271ff" d="M 36.617188 18.765625 C 36.617188 19.082031 36.554688 19.382812 36.4375 19.675781 C 36.316406 19.964844 36.144531 20.222656 35.925781 20.445312 C 35.703125 20.667969 35.449219 20.839844 35.160156 20.960938 C 34.871094 21.082031 34.574219 21.140625 34.261719 21.140625 C 33.949219 21.140625 33.648438 21.082031 33.359375 20.960938 C 33.070312 20.839844 32.816406 20.667969 32.59375 20.445312 C 32.375 20.222656 32.203125 19.964844 32.085938 19.675781 C 31.964844 19.382812 31.90625 19.082031 31.90625 18.765625 C 31.90625 18.449219 31.964844 18.148438 32.085938 17.855469 C 32.203125 17.566406 32.375 17.308594 32.59375 17.085938 C 32.816406 16.863281 33.070312 16.691406 33.359375 16.570312 C 33.648438 16.449219 33.949219 16.390625 34.261719 16.390625 C 34.574219 16.390625 34.871094 16.449219 35.160156 16.570312 C 35.449219 16.691406 35.703125 16.863281 35.925781 17.085938 C 36.144531 17.308594 36.316406 17.566406 36.4375 17.855469 C 36.554688 18.148438 36.617188 18.449219 36.617188 18.765625 Z M 36.617188 18.765625 " fill-opacity="1" fill-rule="nonzero"/></g><g clip-path="url(#029688f514)"><path fill="#5271ff" d="M 5.324219 26.511719 C 5.324219 26.824219 5.265625 27.128906 5.148438 27.417969 C 5.027344 27.710938 4.855469 27.96875 4.636719 28.191406 C 4.414062 28.414062 4.160156 28.585938 3.871094 28.707031 C 3.582031 28.824219 3.28125 28.886719 2.972656 28.886719 C 2.660156 28.886719 2.359375 28.824219 2.070312 28.707031 C 1.78125 28.585938 1.527344 28.414062 1.304688 28.191406 C 1.085938 27.96875 0.914062 27.710938 0.792969 27.417969 C 0.675781 27.128906 0.617188 26.824219 0.617188 26.511719 C 0.617188 26.195312 0.675781 25.890625 0.792969 25.601562 C 0.914062 25.308594 1.085938 25.050781 1.304688 24.828125 C 1.527344 24.605469 1.78125 24.433594 2.070312 24.316406 C 2.359375 24.195312 2.660156 24.132812 2.972656 24.132812 C 3.28125 24.132812 3.582031 24.195312 3.871094 24.316406 C 4.160156 24.433594 4.414062 24.605469 4.636719 24.828125 C 4.855469 25.050781 5.027344 25.308594 5.148438 25.601562 C 5.265625 25.890625 5.324219 26.195312 5.324219 26.511719 Z M 5.324219 26.511719 " fill-opacity="1" fill-rule="nonzero"/></g><g clip-path="url(#87b69f1b27)"><path fill="#5271ff" d="M 13.148438 26.511719 C 13.148438 26.824219 13.089844 27.128906 12.96875 27.417969 C 12.847656 27.710938 12.679688 27.96875 12.457031 28.191406 C 12.238281 28.414062 11.984375 28.585938 11.695312 28.707031 C 11.40625 28.824219 11.105469 28.886719 10.792969 28.886719 C 10.480469 28.886719 10.179688 28.824219 9.890625 28.707031 C 9.601562 28.585938 9.347656 28.414062 9.128906 28.191406 C 8.90625 27.96875 8.738281 27.710938 8.617188 27.417969 C 8.496094 27.128906 8.4375 26.824219 8.4375 26.511719 C 8.4375 26.195312 8.496094 25.890625 8.617188 25.601562 C 8.738281 25.308594 8.90625 25.050781 9.128906 24.828125 C 9.347656 24.605469 9.601562 24.433594 9.890625 24.316406 C 10.179688 24.195312 10.480469 24.132812 10.792969 24.132812 C 11.105469 24.132812 11.40625 24.195312 11.695312 24.316406 C 11.984375 24.433594 12.238281 24.605469 12.457031 24.828125 C 12.679688 25.050781 12.847656 25.308594 12.96875 25.601562 C 13.089844 25.890625 13.148438 26.195312 13.148438 26.511719 Z M 13.148438 26.511719 " fill-opacity="1" fill-rule="nonzero"/></g><g clip-path="url(#1d62040c67)"><path fill="#5271ff" d="M 20.96875 26.511719 C 20.96875 26.824219 20.910156 27.128906 20.789062 27.417969 C 20.671875 27.710938 20.5 27.96875 20.28125 28.191406 C 20.058594 28.414062 19.804688 28.585938 19.515625 28.707031 C 19.226562 28.824219 18.925781 28.886719 18.613281 28.886719 C 18.300781 28.886719 18.003906 28.824219 17.714844 28.707031 C 17.425781 28.585938 17.171875 28.414062 16.949219 28.191406 C 16.730469 27.96875 16.558594 27.710938 16.4375 27.417969 C 16.320312 27.128906 16.257812 26.824219 16.257812 26.511719 C 16.257812 26.195312 16.320312 25.890625 16.4375 25.601562 C 16.558594 25.308594 16.730469 25.050781 16.949219 24.828125 C 17.171875 24.605469 17.425781 24.433594 17.714844 24.316406 C 18.003906 24.195312 18.300781 24.132812 18.613281 24.132812 C 18.925781 24.132812 19.226562 24.195312 19.515625 24.316406 C 19.804688 24.433594 20.058594 24.605469 20.28125 24.828125 C 20.5 25.050781 20.671875 25.308594 20.789062 25.601562 C 20.910156 25.890625 20.96875 26.195312 20.96875 26.511719 Z M 20.96875 26.511719 " fill-opacity="1" fill-rule="nonzero"/></g><g clip-path="url(#9f21d61aa7)"><path fill="#5271ff" d="M 28.792969 26.511719 C 28.792969 26.824219 28.734375 27.128906 28.613281 27.417969 C 28.492188 27.710938 28.324219 27.96875 28.101562 28.191406 C 27.882812 28.414062 27.628906 28.585938 27.339844 28.707031 C 27.050781 28.824219 26.75 28.886719 26.4375 28.886719 C 26.125 28.886719 25.824219 28.824219 25.535156 28.707031 C 25.246094 28.585938 24.992188 28.414062 24.773438 28.191406 C 24.550781 27.96875 24.378906 27.710938 24.261719 27.417969 C 24.140625 27.128906 24.082031 26.824219 24.082031 26.511719 C 24.082031 26.195312 24.140625 25.890625 24.261719 25.601562 C 24.378906 25.308594 24.550781 25.050781 24.773438 24.828125 C 24.992188 24.605469 25.246094 24.433594 25.535156 24.316406 C 25.824219 24.195312 26.125 24.132812 26.4375 24.132812 C 26.75 24.132812 27.050781 24.195312 27.339844 24.316406 C 27.628906 24.433594 27.882812 24.605469 28.101562 24.828125 C 28.324219 25.050781 28.492188 25.308594 28.613281 25.601562 C 28.734375 25.890625 28.792969 26.195312 28.792969 26.511719 Z M 28.792969 26.511719 " fill-opacity="1" fill-rule="nonzero"/></g><g clip-path="url(#fd87addcab)"><path fill="#5271ff" d="M 36.617188 26.511719 C 36.617188 26.824219 36.554688 27.128906 36.4375 27.417969 C 36.316406 27.710938 36.144531 27.96875 35.925781 28.191406 C 35.703125 28.414062 35.449219 28.585938 35.160156 28.707031 C 34.871094 28.824219 34.574219 28.886719 34.261719 28.886719 C 33.949219 28.886719 33.648438 28.824219 33.359375 28.707031 C 33.070312 28.585938 32.816406 28.414062 32.59375 28.191406 C 32.375 27.96875 32.203125 27.710938 32.085938 27.417969 C 31.964844 27.128906 31.90625 26.824219 31.90625 26.511719 C 31.90625 26.195312 31.964844 25.890625 32.085938 25.601562 C 32.203125 25.308594 32.375 25.050781 32.59375 24.828125 C 32.816406 24.605469 33.070312 24.433594 33.359375 24.316406 C 33.648438 24.195312 33.949219 24.132812 34.261719 24.132812 C 34.574219 24.132812 34.871094 24.195312 35.160156 24.316406 C 35.449219 24.433594 35.703125 24.605469 35.925781 24.828125 C 36.144531 25.050781 36.316406 25.308594 36.4375 25.601562 C 36.554688 25.890625 36.617188 26.195312 36.617188 26.511719 Z M 36.617188 26.511719 " fill-opacity="1" fill-rule="nonzero"/></g></svg>