<svg xmlns="http://www.w3.org/2000/svg" xmlns:xlink="http://www.w3.org/1999/xlink" width="50" zoomAndPan="magnify" viewBox="0 0 37.5 37.499999" height="50" preserveAspectRatio="xMidYMid meet" version="1.0"><defs><clipPath id="950a0512c4"><path d="M 1.601562 0.460938 L 7 0.460938 L 7 6 L 1.601562 6 Z M 1.601562 0.460938 " clip-rule="nonzero"/></clipPath></defs><path fill="#ff643d" d="M 6.859375 13.015625 C 3.417969 15.050781 6.726562 16.621094 6.894531 20.394531 C 7.0625 24.210938 3.519531 23.792969 6.457031 26.359375 C 8.769531 28.378906 19.417969 22.246094 19.484375 20.019531 C 19.550781 17.796875 9.453125 11.480469 6.859375 13.015625 Z M 6.859375 13.015625 " fill-opacity="1" fill-rule="evenodd"/><path fill="#ffc2b3" d="M 28.046875 9.238281 C 24.914062 7.898438 25.496094 10.960938 22.988281 12.976562 C 20.441406 15.011719 18.945312 12.371094 18.660156 15.679688 C 18.433594 18.28125 28.015625 22.503906 29.582031 21.429688 C 31.144531 20.355469 30.410156 10.246094 28.046875 9.238281 Z M 28.046875 9.238281 " fill-opacity="1" fill-rule="evenodd"/><path fill="#ffc2b3" d="M 22.171875 20.742188 C 19.035156 19.40625 19.621094 22.46875 17.109375 24.480469 C 14.566406 26.519531 13.070312 23.878906 12.785156 27.183594 C 12.558594 29.789062 22.140625 34.007812 23.707031 32.9375 C 25.269531 31.863281 24.535156 21.75 22.171875 20.742188 Z M 22.171875 20.742188 " fill-opacity="1" fill-rule="evenodd"/><path fill="#ff957a" d="M 27.632812 12.136719 C 30.277344 13.582031 29.636719 27.382812 26.859375 28.695312 C 24.082031 30.011719 10.84375 22.78125 10.972656 20.019531 C 11.101562 17.261719 24.984375 10.691406 27.632812 12.136719 Z M 27.632812 12.136719 " fill-opacity="1" fill-rule="evenodd"/><path fill="#ff957a" d="M 15.410156 5.496094 C 15.84375 5.105469 18.664062 6.035156 18.792969 6.609375 C 18.921875 7.183594 16.75 9.125 16.1875 8.941406 C 15.625 8.753906 14.976562 5.882812 15.410156 5.496094 Z M 15.410156 5.496094 " fill-opacity="1" fill-rule="evenodd"/><path fill="#ffc2b3" d="M 9.679688 4.261719 C 8.601562 4.261719 7.726562 5.136719 7.726562 6.210938 C 7.726562 7.289062 8.601562 8.160156 9.679688 8.160156 C 10.757812 8.160156 11.628906 7.289062 11.628906 6.210938 C 11.628906 5.136719 10.757812 4.261719 9.679688 4.261719 Z M 9.679688 4.519531 C 10.613281 4.519531 11.371094 5.277344 11.371094 6.210938 C 11.371094 7.144531 10.613281 7.902344 9.679688 7.902344 C 8.742188 7.902344 7.984375 7.144531 7.984375 6.210938 C 7.984375 5.277344 8.742188 4.519531 9.679688 4.519531 Z M 9.679688 4.519531 " fill-opacity="1" fill-rule="evenodd"/><path fill="#ffc2b3" d="M 31.722656 32.144531 C 31.933594 31.351562 31.460938 30.535156 30.667969 30.324219 C 29.875 30.113281 29.058594 30.582031 28.84375 31.375 C 28.632812 32.167969 29.101562 32.984375 29.898438 33.199219 C 30.691406 33.410156 31.507812 32.9375 31.722656 32.144531 Z M 31.53125 32.09375 C 31.347656 32.78125 30.636719 33.191406 29.949219 33.007812 C 29.257812 32.824219 28.851562 32.113281 29.035156 31.425781 C 29.21875 30.738281 29.929688 30.332031 30.617188 30.515625 C 31.304688 30.699219 31.714844 31.40625 31.53125 32.09375 Z M 31.53125 32.09375 " fill-opacity="1" fill-rule="evenodd"/><g clip-path="url(#950a0512c4)"><path fill="#ff957a" d="M 4.070312 0.476562 C 2.707031 0.476562 1.601562 1.582031 1.601562 2.941406 C 1.601562 4.300781 2.707031 5.402344 4.070312 5.402344 C 5.429688 5.402344 6.535156 4.300781 6.535156 2.941406 C 6.535156 1.582031 5.429688 0.476562 4.070312 0.476562 Z M 4.070312 0.804688 C 5.25 0.804688 6.207031 1.761719 6.207031 2.941406 C 6.207031 4.121094 5.25 5.078125 4.070312 5.078125 C 2.886719 5.078125 1.929688 4.121094 1.929688 2.941406 C 1.929688 1.761719 2.886719 0.804688 4.070312 0.804688 Z M 4.070312 0.804688 " fill-opacity="1" fill-rule="evenodd"/></g><path fill="#ff957a" d="M 35.546875 28.667969 C 35.828125 27.617188 35.203125 26.53125 34.148438 26.25 C 33.097656 25.96875 32.011719 26.59375 31.730469 27.644531 C 31.449219 28.699219 32.074219 29.78125 33.125 30.0625 C 34.179688 30.34375 35.265625 29.71875 35.546875 28.667969 Z M 35.292969 28.601562 C 35.050781 29.511719 34.109375 30.054688 33.195312 29.808594 C 32.28125 29.566406 31.738281 28.625 31.984375 27.714844 C 32.226562 26.800781 33.167969 26.257812 34.082031 26.503906 C 34.996094 26.746094 35.539062 27.6875 35.292969 28.601562 Z M 35.292969 28.601562 " fill-opacity="1" fill-rule="evenodd"/><path fill="#ff957a" d="M 33.5625 18.898438 C 33.339844 18.839844 33.140625 18.742188 32.960938 18.605469 C 32.78125 18.464844 32.632812 18.296875 32.519531 18.101562 C 32.40625 17.90625 32.335938 17.695312 32.304688 17.46875 C 32.277344 17.246094 32.289062 17.023438 32.347656 16.804688 C 32.40625 16.582031 32.507812 16.382812 32.644531 16.203125 C 32.785156 16.023438 32.949219 15.875 33.148438 15.761719 C 33.34375 15.648438 33.554688 15.578125 33.78125 15.546875 C 34.007812 15.519531 34.230469 15.535156 34.449219 15.59375 C 34.667969 15.652344 34.867188 15.75 35.046875 15.886719 C 35.230469 16.027344 35.375 16.195312 35.488281 16.390625 C 35.601562 16.585938 35.675781 16.796875 35.703125 17.023438 C 35.734375 17.246094 35.71875 17.46875 35.660156 17.6875 C 35.601562 17.910156 35.503906 18.109375 35.363281 18.289062 C 35.226562 18.46875 35.058594 18.613281 34.863281 18.726562 C 34.664062 18.84375 34.453125 18.914062 34.230469 18.941406 C 34.003906 18.972656 33.78125 18.957031 33.5625 18.898438 Z M 33.5625 18.898438 " fill-opacity="1" fill-rule="nonzero"/></svg>