<svg xmlns="http://www.w3.org/2000/svg" xmlns:xlink="http://www.w3.org/1999/xlink" width="50" zoomAndPan="magnify" viewBox="0 0 37.5 37.499999" height="50" preserveAspectRatio="xMidYMid meet" version="1.0"><defs><clipPath id="ceea6ea115"><path d="M 0.484375 12 L 2 12 L 2 14 L 0.484375 14 Z M 0.484375 12 " clip-rule="nonzero"/></clipPath><clipPath id="fad02544ff"><path d="M 36.246094 21.347656 L 37.007812 21.347656 L 37.007812 22.46875 L 36.246094 22.46875 Z M 36.246094 21.347656 " clip-rule="nonzero"/></clipPath><clipPath id="160aad42d4"><path d="M 19.976562 36.867188 L 20.554688 36.867188 L 20.554688 37.007812 L 19.976562 37.007812 Z M 19.976562 36.867188 " clip-rule="nonzero"/></clipPath></defs><path fill="#93c0c0" d="M 15.347656 33.140625 C 15.371094 33.203125 15.394531 33.261719 15.425781 33.316406 C 15.609375 33.605469 16.050781 33.636719 16.335938 33.402344 C 16.523438 33.242188 16.660156 32.820312 16.511719 32.519531 C 16.4375 32.367188 16.34375 32.238281 16.175781 32.207031 C 15.980469 32.171875 15.753906 32.183594 15.605469 32.308594 C 15.515625 32.390625 15.433594 32.488281 15.375 32.601562 C 15.28125 32.785156 15.316406 33.042969 15.347656 33.140625 Z M 15.960938 32.046875 C 16.398438 31.972656 16.71875 32.328125 16.742188 32.773438 C 16.757812 33.113281 16.683594 33.410156 16.363281 33.589844 C 16.085938 33.746094 15.789062 33.78125 15.511719 33.628906 C 15.210938 33.457031 15.117188 33.15625 15.132812 32.824219 C 15.140625 32.628906 15.222656 32.457031 15.328125 32.296875 C 15.414062 32.160156 15.550781 32.09375 15.707031 32.070312 C 15.785156 32.058594 15.859375 32.058594 15.960938 32.046875 " fill-opacity="1" fill-rule="nonzero"/><path fill="#93c0c0" d="M 27.664062 12.085938 C 27.59375 11.980469 27.488281 11.910156 27.34375 11.855469 C 27.171875 11.796875 26.964844 11.839844 26.863281 11.976562 C 26.828125 12.023438 26.792969 12.109375 26.808594 12.160156 C 26.84375 12.265625 26.863281 12.34375 26.746094 12.410156 C 26.71875 12.425781 26.714844 12.492188 26.714844 12.535156 C 26.71875 12.707031 26.796875 12.839844 26.945312 12.929688 C 27.136719 13.046875 27.34375 13.046875 27.535156 12.941406 C 27.628906 12.890625 27.695312 12.820312 27.734375 12.742188 C 27.800781 12.597656 27.789062 12.265625 27.664062 12.085938 Z M 26.875 13.078125 C 26.730469 12.996094 26.628906 12.859375 26.5625 12.679688 C 26.515625 12.535156 26.484375 12.382812 26.601562 12.246094 C 26.625 12.222656 26.628906 12.179688 26.628906 12.144531 C 26.613281 11.855469 26.898438 11.640625 27.210938 11.667969 C 27.929688 11.734375 28.09375 12.4375 27.847656 12.902344 C 27.792969 13.003906 27.714844 13.070312 27.625 13.113281 C 27.46875 13.183594 27.09375 13.203125 26.875 13.078125 " fill-opacity="1" fill-rule="nonzero"/><path fill="#93c0c0" d="M 27.082031 20.359375 C 26.921875 20.359375 26.832031 20.441406 26.78125 20.558594 C 26.730469 20.679688 26.707031 20.804688 26.824219 20.914062 C 26.855469 20.941406 26.882812 20.980469 26.898438 21.023438 C 26.992188 21.269531 27.199219 21.355469 27.4375 21.375 C 27.632812 21.394531 27.796875 21.230469 27.75 21.050781 C 27.707031 20.878906 27.628906 20.707031 27.527344 20.5625 C 27.421875 20.417969 27.246094 20.363281 27.082031 20.359375 Z M 27.910156 21.058594 C 27.917969 21.378906 27.699219 21.570312 27.382812 21.53125 C 26.996094 21.480469 26.742188 21.269531 26.613281 20.910156 C 26.484375 20.542969 26.75 20.191406 27.140625 20.214844 C 27.566406 20.242188 27.898438 20.605469 27.910156 21.058594 " fill-opacity="1" fill-rule="nonzero"/><g clip-path="url(#ceea6ea115)"><path fill="#93c0c0" d="M 1.316406 13.738281 C 1.390625 13.71875 1.460938 13.695312 1.53125 13.664062 C 1.59375 13.636719 1.652344 13.5625 1.675781 13.5 C 1.78125 13.195312 1.4375 12.789062 1.117188 12.84375 C 1.03125 12.855469 0.949219 12.914062 0.871094 12.957031 C 0.851562 12.96875 0.824219 13.023438 0.832031 13.03125 C 0.917969 13.128906 0.847656 13.191406 0.789062 13.261719 C 0.695312 13.378906 0.738281 13.496094 0.800781 13.601562 C 0.835938 13.65625 0.875 13.707031 0.921875 13.742188 C 1.007812 13.804688 1.195312 13.773438 1.316406 13.738281 Z M 0.5625 13.265625 C 0.484375 12.824219 1.09375 12.550781 1.4375 12.75 C 1.675781 12.886719 1.847656 13.070312 1.871094 13.351562 C 1.890625 13.570312 1.789062 13.738281 1.585938 13.824219 C 1.472656 13.871094 1.351562 13.902344 1.234375 13.925781 C 0.894531 13.992188 0.644531 13.816406 0.582031 13.480469 C 0.570312 13.421875 0.570312 13.359375 0.5625 13.265625 " fill-opacity="1" fill-rule="nonzero"/></g><path fill="#93c0c0" d="M 9.328125 30.027344 C 9.355469 30.019531 9.386719 30.011719 9.417969 30.003906 C 9.601562 29.945312 9.703125 29.824219 9.707031 29.664062 C 9.714844 29.476562 9.636719 29.339844 9.488281 29.277344 C 9.296875 29.199219 9.160156 29.226562 9.023438 29.375 C 8.964844 29.433594 8.914062 29.5 8.855469 29.558594 C 8.769531 29.648438 8.777344 29.746094 8.824219 29.851562 C 8.859375 29.9375 8.910156 29.992188 8.992188 30.019531 C 9.121094 30.066406 9.277344 30.039062 9.328125 30.027344 Z M 9.207031 30.203125 C 8.851562 30.25 8.691406 30.085938 8.621094 29.773438 C 8.566406 29.539062 8.703125 29.363281 8.863281 29.214844 C 9.167969 28.9375 9.707031 29.054688 9.847656 29.417969 C 9.980469 29.757812 9.78125 30.140625 9.414062 30.195312 C 9.347656 30.207031 9.277344 30.203125 9.207031 30.203125 " fill-opacity="1" fill-rule="nonzero"/><path fill="#e9ba74" d="M 20.582031 15.980469 C 20.644531 15.957031 20.707031 15.929688 20.765625 15.894531 C 20.9375 15.789062 20.96875 15.609375 20.859375 15.441406 C 20.726562 15.230469 20.527344 15.136719 20.28125 15.125 C 20.230469 15.121094 20.175781 15.136719 20.128906 15.15625 C 20.066406 15.183594 20.015625 15.230469 20.105469 15.285156 C 20.210938 15.351562 20.175781 15.390625 20.09375 15.449219 C 19.972656 15.535156 19.953125 15.632812 20 15.765625 C 20.035156 15.863281 20.082031 15.929688 20.144531 15.976562 C 20.265625 16.058594 20.476562 16.019531 20.582031 15.980469 Z M 19.816406 15.613281 C 19.8125 15.546875 19.8125 15.523438 19.8125 15.5 C 19.789062 15.082031 20.0625 14.871094 20.507812 15 C 20.640625 15.039062 20.777344 15.121094 20.878906 15.214844 C 21.214844 15.527344 21.128906 15.957031 20.703125 16.121094 C 20.429688 16.222656 20.132812 16.21875 19.960938 16.011719 C 19.851562 15.878906 19.808594 15.734375 19.816406 15.613281 " fill-opacity="1" fill-rule="nonzero"/><path fill="#93c0c0" d="M 11.0625 6.246094 C 11.113281 6.226562 11.144531 6.191406 11.175781 6.132812 C 11.359375 5.792969 11.167969 5.4375 10.78125 5.367188 C 10.644531 5.34375 10.550781 5.417969 10.503906 5.546875 C 10.449219 5.695312 10.484375 5.828125 10.554688 5.960938 C 10.570312 5.996094 10.59375 6.070312 10.582031 6.078125 C 10.484375 6.136719 10.535156 6.167969 10.597656 6.191406 C 10.648438 6.207031 10.699219 6.222656 10.75 6.238281 C 10.832031 6.257812 10.976562 6.277344 11.0625 6.246094 Z M 10.671875 6.394531 C 10.597656 6.375 10.523438 6.34375 10.457031 6.292969 C 10.378906 6.238281 10.328125 6.171875 10.359375 6.0625 C 10.371094 6.015625 10.355469 5.960938 10.351562 5.910156 C 10.34375 5.871094 10.328125 5.835938 10.324219 5.796875 C 10.304688 5.589844 10.324219 5.394531 10.53125 5.28125 C 10.734375 5.175781 10.921875 5.21875 11.117188 5.332031 C 11.386719 5.492188 11.433594 5.726562 11.390625 6 C 11.371094 6.125 11.332031 6.242188 11.246094 6.316406 C 11.097656 6.449219 10.800781 6.425781 10.671875 6.394531 " fill-opacity="1" fill-rule="nonzero"/><g clip-path="url(#fad02544ff)"><path fill="#93c0c0" d="M 36.664062 21.617188 C 36.628906 21.628906 36.59375 21.644531 36.578125 21.671875 C 36.511719 21.777344 36.453125 21.898438 36.4375 22.019531 C 36.417969 22.148438 36.671875 22.3125 36.84375 22.304688 C 36.988281 22.296875 37.082031 22.148438 37.074219 21.941406 C 37.070312 21.832031 37.046875 21.75 37 21.691406 C 36.910156 21.574219 36.722656 21.601562 36.664062 21.617188 Z M 36.90625 22.46875 C 36.582031 22.484375 36.328125 22.308594 36.265625 22.058594 C 36.230469 21.914062 36.289062 21.789062 36.347656 21.667969 C 36.371094 21.621094 36.40625 21.582031 36.4375 21.539062 C 36.597656 21.320312 36.820312 21.300781 37.019531 21.488281 C 37.222656 21.675781 37.285156 22 37.1875 22.257812 C 37.128906 22.410156 37.019531 22.457031 36.90625 22.46875 " fill-opacity="1" fill-rule="nonzero"/></g><path fill="#93c0c0" d="M 3.347656 24.035156 C 3.378906 24.03125 3.398438 24.03125 3.417969 24.027344 C 3.53125 24.003906 3.613281 23.902344 3.632812 23.765625 C 3.652344 23.621094 3.613281 23.570312 3.484375 23.492188 C 3.292969 23.382812 3.164062 23.5 3.03125 23.59375 C 2.910156 23.675781 2.90625 23.863281 3.027344 23.941406 C 3.066406 23.96875 3.109375 23.984375 3.148438 24 C 3.21875 24.023438 3.304688 24.035156 3.347656 24.035156 Z M 3.339844 24.179688 C 3.164062 24.179688 3 24.132812 2.875 23.992188 C 2.710938 23.816406 2.746094 23.574219 2.949219 23.449219 C 2.976562 23.433594 3.003906 23.425781 3.03125 23.40625 C 3.257812 23.25 3.515625 23.277344 3.703125 23.476562 C 3.832031 23.621094 3.824219 23.777344 3.753906 23.941406 C 3.675781 24.117188 3.53125 24.183594 3.339844 24.179688 " fill-opacity="1" fill-rule="nonzero"/><path fill="#93c0c0" d="M 34.769531 14.355469 C 34.699219 14.363281 34.632812 14.386719 34.566406 14.378906 C 34.433594 14.371094 34.429688 14.46875 34.402344 14.554688 C 34.375 14.65625 34.402344 14.734375 34.496094 14.785156 C 34.601562 14.839844 34.847656 14.800781 34.925781 14.710938 C 34.984375 14.648438 35.039062 14.574219 34.988281 14.488281 C 34.941406 14.40625 34.871094 14.34375 34.769531 14.355469 Z M 35.105469 14.765625 C 35.070312 14.828125 35.015625 14.875 34.945312 14.90625 C 34.835938 14.957031 34.695312 14.96875 34.570312 14.960938 C 34.414062 14.949219 34.296875 14.851562 34.253906 14.699219 C 34.207031 14.53125 34.257812 14.382812 34.359375 14.25 C 34.367188 14.238281 34.382812 14.230469 34.394531 14.222656 C 34.601562 14.078125 35.085938 14.25 35.148438 14.488281 C 35.152344 14.5 35.15625 14.511719 35.15625 14.523438 C 35.160156 14.542969 35.167969 14.664062 35.105469 14.765625 " fill-opacity="1" fill-rule="nonzero"/><path fill="#93c0c0" d="M 16.550781 26.582031 C 16.5625 26.773438 16.425781 26.957031 16.265625 26.964844 C 16.121094 26.96875 15.921875 26.746094 15.910156 26.570312 C 15.90625 26.472656 16.117188 26.285156 16.25 26.273438 C 16.398438 26.261719 16.542969 26.40625 16.550781 26.582031 " fill-opacity="1" fill-rule="nonzero"/><path fill="#93c0c0" d="M 24.660156 17.015625 C 24.855469 17.007812 25.011719 17.109375 25.019531 17.253906 C 25.03125 17.402344 24.863281 17.554688 24.683594 17.5625 C 24.554688 17.570312 24.445312 17.464844 24.433594 17.324219 C 24.421875 17.15625 24.519531 17.023438 24.660156 17.015625 " fill-opacity="1" fill-rule="nonzero"/><path fill="#93c0c0" d="M 9.136719 12.878906 C 9.261719 12.871094 9.4375 13 9.441406 13.105469 C 9.441406 13.222656 9.289062 13.390625 9.164062 13.402344 C 9.035156 13.414062 8.886719 13.257812 8.878906 13.097656 C 8.875 13.023438 9.03125 12.886719 9.136719 12.878906 " fill-opacity="1" fill-rule="nonzero"/><path fill="#e9ba74" d="M 30.507812 32.609375 C 30.488281 32.605469 30.46875 32.605469 30.449219 32.609375 C 30.402344 32.613281 30.363281 32.636719 30.316406 32.644531 C 30.132812 32.683594 30.089844 32.992188 30.214844 33.097656 C 30.285156 33.160156 30.386719 33.226562 30.472656 33.226562 C 30.644531 33.222656 30.820312 33.191406 30.984375 33.140625 C 31.128906 33.097656 31.21875 32.90625 31.191406 32.773438 C 31.167969 32.675781 31.074219 32.566406 31.011719 32.597656 C 30.9375 32.636719 30.863281 32.632812 30.789062 32.625 C 30.667969 32.609375 30.539062 32.613281 30.507812 32.609375 Z M 30.226562 33.3125 C 30.113281 33.242188 30.035156 33.136719 29.992188 32.984375 C 29.941406 32.796875 30.007812 32.589844 30.183594 32.523438 C 30.429688 32.429688 30.6875 32.339844 30.960938 32.402344 C 31.265625 32.476562 31.414062 32.761719 31.304688 33.054688 C 31.253906 33.1875 31.160156 33.269531 31.027344 33.304688 C 30.960938 33.324219 30.894531 33.339844 30.828125 33.351562 C 30.71875 33.375 30.425781 33.425781 30.226562 33.3125 " fill-opacity="1" fill-rule="nonzero"/><path fill="#e9ba74" d="M 7.410156 1.347656 C 7.46875 1.296875 7.511719 1.230469 7.550781 1.160156 C 7.621094 1.03125 7.574219 0.914062 7.429688 0.875 C 7.335938 0.851562 7.226562 0.832031 7.136719 0.855469 C 7.027344 0.882812 6.929688 0.957031 6.828125 1.019531 C 6.808594 1.027344 6.804688 1.070312 6.804688 1.101562 C 6.800781 1.210938 6.84375 1.300781 6.917969 1.355469 C 7.042969 1.449219 7.3125 1.433594 7.410156 1.347656 Z M 7.214844 1.570312 C 6.789062 1.582031 6.5625 1.28125 6.691406 0.902344 C 6.742188 0.742188 6.769531 0.742188 6.957031 0.730469 C 7.097656 0.71875 7.238281 0.699219 7.382812 0.722656 C 7.542969 0.75 7.648438 0.832031 7.707031 0.980469 C 7.765625 1.125 7.710938 1.242188 7.621094 1.355469 C 7.507812 1.492188 7.371094 1.582031 7.214844 1.570312 " fill-opacity="1" fill-rule="nonzero"/><path fill="#e9ba74" d="M 25.757812 35.53125 C 25.773438 35.566406 25.785156 35.601562 25.777344 35.632812 C 25.757812 35.703125 25.789062 35.710938 25.828125 35.71875 C 25.9375 35.75 26.140625 35.695312 26.160156 35.636719 C 26.183594 35.570312 26.101562 35.429688 25.992188 35.359375 C 25.949219 35.332031 25.898438 35.308594 25.847656 35.300781 C 25.804688 35.292969 25.769531 35.304688 25.746094 35.328125 C 25.699219 35.371094 25.734375 35.476562 25.757812 35.53125 Z M 25.632812 35.171875 C 25.703125 35.117188 25.796875 35.09375 25.898438 35.117188 C 26.125 35.164062 26.308594 35.363281 26.335938 35.589844 C 26.355469 35.71875 26.320312 35.808594 26.195312 35.835938 C 26.050781 35.871094 25.894531 35.871094 25.746094 35.867188 C 25.703125 35.867188 25.640625 35.820312 25.625 35.777344 C 25.605469 35.722656 25.585938 35.664062 25.570312 35.601562 C 25.546875 35.5 25.515625 35.269531 25.632812 35.171875 " fill-opacity="1" fill-rule="nonzero"/><path fill="#e9ba74" d="M 21.117188 0.660156 C 21.109375 0.519531 21.226562 0.40625 21.394531 0.386719 C 21.523438 0.375 21.734375 0.527344 21.738281 0.640625 C 21.742188 0.761719 21.535156 0.925781 21.371094 0.929688 C 21.238281 0.933594 21.125 0.816406 21.117188 0.660156 " fill-opacity="1" fill-rule="nonzero"/><path fill="#e9ba74" d="M 22.03125 21.621094 C 21.867188 21.625 21.726562 21.492188 21.726562 21.332031 C 21.726562 21.195312 21.835938 21.066406 21.953125 21.058594 C 22.105469 21.054688 22.304688 21.253906 22.304688 21.417969 C 22.304688 21.550781 22.210938 21.621094 22.03125 21.621094 " fill-opacity="1" fill-rule="nonzero"/><path fill="#e9ba74" d="M 14.582031 22.984375 C 14.546875 23.027344 14.519531 23.066406 14.503906 23.105469 C 14.488281 23.132812 14.523438 23.1875 14.542969 23.222656 C 14.550781 23.238281 14.582031 23.242188 14.601562 23.242188 C 14.691406 23.222656 14.773438 23.070312 14.734375 22.988281 C 14.726562 22.96875 14.714844 22.949219 14.703125 22.925781 C 14.683594 22.894531 14.628906 22.917969 14.582031 22.984375 Z M 14.9375 23.042969 C 14.9375 23.203125 14.769531 23.390625 14.613281 23.410156 C 14.503906 23.421875 14.40625 23.375 14.355469 23.261719 C 14.316406 23.175781 14.253906 23.082031 14.367188 22.996094 C 14.394531 22.976562 14.410156 22.9375 14.425781 22.90625 C 14.5 22.722656 14.578125 22.691406 14.753906 22.777344 C 14.871094 22.839844 14.933594 22.933594 14.9375 23.042969 " fill-opacity="1" fill-rule="nonzero"/><path fill="#e9ba74" d="M 30.652344 25.089844 C 30.785156 25.085938 30.921875 25.199219 30.929688 25.3125 C 30.933594 25.417969 30.78125 25.582031 30.667969 25.589844 C 30.542969 25.597656 30.425781 25.480469 30.425781 25.34375 C 30.421875 25.191406 30.511719 25.09375 30.652344 25.089844 " fill-opacity="1" fill-rule="nonzero"/><path fill="#e9ba74" d="M 32.152344 21.410156 C 32.144531 21.242188 32.214844 21.179688 32.386719 21.207031 C 32.414062 21.210938 32.445312 21.214844 32.472656 21.222656 C 32.609375 21.253906 32.703125 21.335938 32.695312 21.414062 C 32.6875 21.511719 32.488281 21.640625 32.359375 21.632812 C 32.234375 21.621094 32.15625 21.539062 32.152344 21.410156 " fill-opacity="1" fill-rule="nonzero"/><path fill="#3e515a" d="M 21.710938 31.15625 C 21.691406 31.160156 21.671875 31.164062 21.65625 31.179688 C 21.597656 31.222656 21.539062 31.277344 21.503906 31.339844 C 21.457031 31.417969 21.546875 31.4375 21.585938 31.476562 C 21.640625 31.535156 21.617188 31.570312 21.546875 31.589844 C 21.496094 31.601562 21.4375 31.597656 21.390625 31.621094 C 21.332031 31.648438 21.25 31.6875 21.242188 31.738281 C 21.207031 31.894531 21.203125 32.054688 21.300781 32.199219 C 21.414062 32.371094 21.554688 32.421875 21.753906 32.359375 C 22.109375 32.246094 22.253906 32 22.253906 31.699219 C 22.257812 31.523438 22.222656 31.390625 22.148438 31.300781 C 22.003906 31.117188 21.746094 31.148438 21.710938 31.15625 Z M 22.425781 31.648438 C 22.445312 32.148438 22.097656 32.539062 21.628906 32.550781 C 21.445312 32.554688 21.300781 32.484375 21.195312 32.339844 C 21.046875 32.140625 20.96875 31.90625 21.074219 31.675781 C 21.167969 31.472656 21.316406 31.285156 21.457031 31.109375 C 21.613281 30.914062 21.996094 30.949219 22.1875 31.125 C 22.347656 31.265625 22.421875 31.441406 22.425781 31.648438 " fill-opacity="1" fill-rule="nonzero"/><path fill="#e9ba74" d="M 16.019531 2.652344 C 16.015625 2.421875 15.761719 2.183594 15.53125 2.199219 C 15.511719 2.199219 15.492188 2.214844 15.476562 2.226562 C 15.433594 2.25 15.390625 2.28125 15.347656 2.292969 C 15.214844 2.320312 15.125 2.394531 15.101562 2.527344 C 15.074219 2.671875 15.089844 2.808594 15.222656 2.890625 C 15.328125 2.953125 15.4375 3.011719 15.554688 3.039062 C 15.808594 3.101562 16.023438 2.914062 16.019531 2.652344 Z M 14.945312 2.652344 C 14.933594 2.355469 15.101562 2.113281 15.371094 2.035156 C 15.40625 2.023438 15.445312 2.023438 15.480469 2.03125 C 15.570312 2.046875 15.660156 2.078125 15.75 2.089844 C 15.957031 2.121094 16.074219 2.230469 16.140625 2.433594 C 16.226562 2.703125 16.203125 2.902344 15.988281 3.089844 C 15.925781 3.148438 15.828125 3.183594 15.746094 3.195312 C 15.53125 3.222656 15.335938 3.148438 15.160156 3.039062 C 15.015625 2.949219 14.9375 2.8125 14.945312 2.652344 " fill-opacity="1" fill-rule="nonzero"/><path fill="#3e515a" d="M 21.0625 5.019531 C 20.976562 5.015625 20.929688 5.074219 20.925781 5.1875 C 20.925781 5.347656 20.957031 5.40625 21.054688 5.414062 C 21.132812 5.417969 21.261719 5.3125 21.265625 5.234375 C 21.273438 5.148438 21.152344 5.023438 21.0625 5.019531 Z M 21.027344 4.863281 C 21.230469 4.859375 21.425781 5.042969 21.425781 5.246094 C 21.429688 5.398438 21.25 5.566406 21.078125 5.578125 C 20.90625 5.585938 20.699219 5.394531 20.699219 5.222656 C 20.695312 5.019531 20.835938 4.867188 21.027344 4.863281 " fill-opacity="1" fill-rule="nonzero"/><g clip-path="url(#160aad42d4)"><path fill="#3e515a" d="M 20.535156 37.15625 C 20.539062 37.335938 20.429688 37.480469 20.289062 37.488281 C 20.125 37.496094 19.976562 37.335938 19.976562 37.160156 C 19.976562 37.039062 20.125 36.890625 20.242188 36.894531 C 20.410156 36.898438 20.53125 37.007812 20.535156 37.15625 " fill-opacity="1" fill-rule="nonzero"/></g><path fill="#3e515a" d="M 12.183594 27.421875 C 12.1875 27.582031 12.078125 27.734375 11.953125 27.742188 C 11.8125 27.75 11.691406 27.617188 11.6875 27.457031 C 11.683594 27.296875 11.785156 27.15625 11.902344 27.148438 C 12.050781 27.140625 12.179688 27.261719 12.183594 27.421875 " fill-opacity="1" fill-rule="nonzero"/><path fill="#3e515a" d="M 11.175781 10.566406 C 11.132812 10.601562 11.109375 10.648438 11.125 10.6875 C 11.136719 10.722656 11.195312 10.773438 11.230469 10.769531 C 11.3125 10.765625 11.371094 10.699219 11.367188 10.617188 C 11.367188 10.597656 11.355469 10.582031 11.339844 10.5625 C 11.316406 10.539062 11.230469 10.519531 11.175781 10.566406 Z M 10.96875 10.664062 C 10.96875 10.519531 11.113281 10.375 11.261719 10.371094 C 11.386719 10.367188 11.519531 10.503906 11.523438 10.640625 C 11.53125 10.777344 11.371094 10.929688 11.226562 10.929688 C 11.089844 10.929688 10.964844 10.804688 10.96875 10.664062 " fill-opacity="1" fill-rule="nonzero"/><path fill="#93c0c0" d="M 21.714844 27.144531 C 21.589844 27.144531 21.519531 27.078125 21.519531 26.972656 C 21.519531 26.871094 21.648438 26.769531 21.761719 26.78125 C 21.851562 26.789062 21.9375 26.875 21.933594 26.960938 C 21.933594 27.066406 21.832031 27.148438 21.714844 27.144531 " fill-opacity="1" fill-rule="nonzero"/><path fill="#dfe9e4" d="M 1.746094 6.890625 C 2.082031 6.878906 2.292969 6.683594 2.359375 6.328125 C 2.40625 6.074219 2.308594 5.789062 2.015625 5.722656 C 1.914062 5.699219 1.8125 5.660156 1.707031 5.644531 C 1.515625 5.609375 1.324219 5.703125 1.234375 5.855469 C 1.203125 5.910156 1.175781 5.964844 1.269531 5.996094 C 1.332031 6.015625 1.316406 6.058594 1.285156 6.101562 C 1.242188 6.164062 1.179688 6.222656 1.171875 6.289062 C 1.136719 6.609375 1.421875 6.898438 1.746094 6.890625 Z M 1.003906 6.132812 C 1.003906 6.089844 1.007812 6.0625 1.007812 6.035156 C 1.027344 5.683594 1.277344 5.453125 1.660156 5.492188 C 1.867188 5.511719 2.078125 5.589844 2.269531 5.679688 C 2.546875 5.808594 2.574219 6.125 2.527344 6.375 C 2.4375 6.835938 2.097656 7.082031 1.628906 7.035156 C 1.359375 7.003906 1.1875 6.828125 1.085938 6.59375 C 1.0625 6.535156 1.042969 6.472656 1.03125 6.414062 C 1.011719 6.308594 1 6.183594 1.003906 6.132812 " fill-opacity="1" fill-rule="nonzero"/><path fill="#dfe9e4" d="M 16.324219 12.445312 C 16.289062 12.382812 16.230469 12.332031 16.15625 12.292969 C 15.980469 12.199219 15.792969 12.175781 15.601562 12.183594 C 15.496094 12.183594 15.386719 12.214844 15.394531 12.363281 C 15.394531 12.386719 15.367188 12.421875 15.34375 12.433594 C 15.121094 12.558594 15.167969 12.746094 15.21875 12.933594 C 15.265625 13.109375 15.363281 13.273438 15.554688 13.296875 C 15.8125 13.328125 16.058594 13.261719 16.230469 13.046875 C 16.277344 12.992188 16.320312 12.933594 16.351562 12.871094 C 16.398438 12.765625 16.390625 12.550781 16.324219 12.445312 Z M 15.925781 12.0625 C 16.015625 12.085938 16.109375 12.113281 16.195312 12.148438 C 16.554688 12.304688 16.65625 12.664062 16.464844 13.003906 C 16.28125 13.332031 15.996094 13.460938 15.632812 13.464844 C 15.601562 13.464844 15.570312 13.464844 15.542969 13.457031 C 15.257812 13.40625 15.023438 13.097656 15 12.746094 C 14.972656 12.421875 15.148438 12.144531 15.4375 12.050781 C 15.46875 12.039062 15.503906 12.035156 15.539062 12.03125 C 15.59375 12.023438 15.640625 12.015625 15.644531 12.007812 C 15.644531 12.003906 15.773438 12.027344 15.925781 12.0625 " fill-opacity="1" fill-rule="nonzero"/><path fill="#dfe9e4" d="M 9.566406 23.953125 C 9.523438 23.886719 9.457031 23.832031 9.371094 23.796875 C 9.207031 23.71875 9.03125 23.722656 8.871094 23.824219 C 8.8125 23.863281 8.753906 23.90625 8.859375 23.972656 C 8.925781 24.011719 8.871094 24.058594 8.84375 24.101562 C 8.726562 24.292969 8.742188 24.503906 8.878906 24.671875 C 8.957031 24.769531 9.0625 24.796875 9.183594 24.773438 C 9.347656 24.742188 9.464844 24.683594 9.535156 24.582031 C 9.664062 24.402344 9.644531 24.070312 9.566406 23.953125 Z M 9.714844 24.65625 C 9.570312 24.875 9.296875 24.957031 9.070312 24.945312 C 8.84375 24.9375 8.648438 24.734375 8.613281 24.476562 C 8.589844 24.328125 8.574219 24.179688 8.570312 24.027344 C 8.5625 23.871094 8.640625 23.753906 8.777344 23.671875 C 9.28125 23.375 9.8125 23.761719 9.808594 24.1875 C 9.808594 24.195312 9.808594 24.203125 9.808594 24.210938 C 9.808594 24.21875 9.851562 24.445312 9.714844 24.65625 " fill-opacity="1" fill-rule="nonzero"/><path fill="#e9ba74" d="M 5.742188 16.523438 C 5.730469 16.496094 5.71875 16.464844 5.703125 16.433594 C 5.613281 16.25 5.457031 16.167969 5.28125 16.203125 C 4.96875 16.261719 4.792969 16.410156 4.773438 16.621094 C 4.753906 16.875 4.953125 17.117188 5.191406 17.128906 C 5.34375 17.136719 5.488281 17.085938 5.59375 16.992188 C 5.78125 16.839844 5.761719 16.574219 5.742188 16.523438 Z M 4.835938 17.140625 C 4.664062 16.984375 4.550781 16.738281 4.582031 16.53125 C 4.589844 16.488281 4.605469 16.445312 4.632812 16.410156 C 4.808594 16.140625 5.085938 16.042969 5.382812 16.046875 C 5.792969 16.050781 5.988281 16.523438 5.921875 16.804688 C 5.890625 16.953125 5.804688 17.074219 5.675781 17.15625 C 5.46875 17.289062 5.023438 17.308594 4.835938 17.140625 " fill-opacity="1" fill-rule="nonzero"/><path fill="#dfe9e4" d="M 34.570312 28.679688 C 34.597656 28.722656 34.640625 28.75 34.699219 28.765625 C 34.851562 28.804688 35.007812 28.839844 35.167969 28.851562 C 35.332031 28.863281 35.445312 28.738281 35.460938 28.566406 C 35.472656 28.402344 35.417969 28.328125 35.226562 28.300781 C 35.109375 28.285156 34.984375 28.320312 34.871094 28.289062 C 34.789062 28.269531 34.710938 28.226562 34.648438 28.304688 C 34.621094 28.335938 34.597656 28.375 34.578125 28.414062 C 34.542969 28.480469 34.519531 28.605469 34.570312 28.679688 Z M 34.890625 28.980469 C 34.804688 28.960938 34.71875 28.941406 34.636719 28.914062 C 34.453125 28.855469 34.351562 28.710938 34.359375 28.511719 C 34.363281 28.308594 34.46875 28.160156 34.652344 28.085938 C 34.761719 28.042969 34.894531 28.03125 35.011719 28.042969 C 35.144531 28.058594 35.277344 28.109375 35.402344 28.167969 C 35.554688 28.238281 35.679688 28.523438 35.640625 28.675781 C 35.617188 28.777344 35.546875 28.863281 35.449219 28.925781 C 35.300781 29.023438 35.03125 29.007812 34.890625 28.980469 " fill-opacity="1" fill-rule="nonzero"/><path fill="#dfe9e4" d="M 30.382812 8.261719 C 30.359375 8.222656 30.335938 8.179688 30.304688 8.144531 C 30.082031 7.898438 29.773438 8.039062 29.601562 8.207031 C 29.519531 8.289062 29.496094 8.410156 29.542969 8.523438 C 29.636719 8.746094 30.125 8.867188 30.300781 8.683594 C 30.34375 8.640625 30.378906 8.597656 30.402344 8.546875 C 30.445312 8.464844 30.417969 8.332031 30.382812 8.261719 Z M 30.121094 8.914062 C 29.863281 8.925781 29.6875 8.855469 29.53125 8.738281 C 29.355469 8.609375 29.316406 8.4375 29.402344 8.234375 C 29.558594 7.863281 29.96875 7.742188 30.308594 7.96875 C 30.558594 8.140625 30.628906 8.28125 30.570312 8.507812 C 30.511719 8.753906 30.316406 8.910156 30.121094 8.914062 " fill-opacity="1" fill-rule="nonzero"/><path fill="#dfe9e4" d="M 27.585938 29.605469 C 27.734375 29.597656 27.90625 29.433594 27.925781 29.285156 C 27.9375 29.164062 27.828125 29.042969 27.671875 29.003906 C 27.585938 28.984375 27.304688 29.09375 27.261719 29.164062 C 27.253906 29.175781 27.253906 29.191406 27.25 29.207031 C 27.191406 29.433594 27.351562 29.621094 27.585938 29.605469 Z M 27.070312 29.277344 C 27.058594 29.003906 27.160156 28.886719 27.484375 28.839844 C 27.894531 28.78125 28.175781 29.117188 28.058594 29.464844 C 27.996094 29.644531 27.722656 29.8125 27.527344 29.78125 C 27.289062 29.746094 27.078125 29.515625 27.070312 29.277344 " fill-opacity="1" fill-rule="nonzero"/><path fill="#dfe9e4" d="M 26.769531 2.765625 C 26.796875 2.808594 26.835938 2.839844 26.882812 2.863281 C 26.964844 2.902344 27.054688 2.929688 27.144531 2.945312 C 27.289062 2.964844 27.386719 2.90625 27.457031 2.769531 C 27.53125 2.636719 27.519531 2.535156 27.414062 2.417969 C 27.261719 2.25 27.105469 2.234375 26.914062 2.375 C 26.890625 2.390625 26.867188 2.410156 26.839844 2.421875 C 26.789062 2.4375 26.765625 2.46875 26.75 2.5 C 26.726562 2.566406 26.726562 2.695312 26.769531 2.765625 Z M 26.570312 2.617188 C 26.5625 2.355469 26.792969 2.097656 27.042969 2.089844 C 27.3125 2.082031 27.652344 2.386719 27.65625 2.640625 C 27.660156 2.886719 27.464844 3.089844 27.210938 3.097656 C 26.859375 3.109375 26.578125 2.898438 26.570312 2.617188 " fill-opacity="1" fill-rule="nonzero"/><path fill="#dfe9e4" d="M 17.390625 7.273438 C 17.355469 7.292969 17.316406 7.320312 17.28125 7.347656 C 17.199219 7.40625 17.1875 7.546875 17.253906 7.625 C 17.320312 7.703125 17.535156 7.765625 17.632812 7.734375 C 17.757812 7.695312 17.902344 7.488281 17.882812 7.382812 C 17.875 7.320312 17.816406 7.265625 17.726562 7.234375 C 17.605469 7.191406 17.453125 7.234375 17.390625 7.273438 Z M 17.636719 7.070312 C 17.667969 7.078125 17.699219 7.085938 17.734375 7.097656 C 17.957031 7.175781 18.0625 7.328125 18.023438 7.5 C 17.96875 7.722656 17.753906 7.898438 17.542969 7.878906 C 17.484375 7.875 17.421875 7.859375 17.367188 7.84375 C 17.125 7.765625 17.027344 7.609375 17.066406 7.375 C 17.082031 7.277344 17.144531 7.191406 17.242188 7.132812 C 17.386719 7.042969 17.578125 7.058594 17.636719 7.070312 " fill-opacity="1" fill-rule="nonzero"/><path fill="#dfe9e4" d="M 31.730469 17.039062 C 31.847656 17.035156 31.984375 16.898438 31.996094 16.769531 C 32.007812 16.675781 31.90625 16.566406 31.789062 16.570312 C 31.722656 16.570312 31.660156 16.628906 31.597656 16.660156 C 31.496094 16.710938 31.441406 16.792969 31.484375 16.902344 C 31.527344 17.007812 31.621094 17.039062 31.730469 17.039062 Z M 31.769531 17.1875 C 31.53125 17.195312 31.304688 17.03125 31.296875 16.84375 C 31.292969 16.636719 31.503906 16.417969 31.722656 16.40625 C 31.910156 16.394531 32.140625 16.582031 32.152344 16.75 C 32.160156 16.960938 31.972656 17.175781 31.769531 17.1875 " fill-opacity="1" fill-rule="nonzero"/><path fill="#dfe9e4" d="M 15.40625 17.640625 C 15.402344 17.558594 15.285156 17.457031 15.183594 17.453125 C 15.078125 17.445312 14.988281 17.570312 14.984375 17.726562 C 14.980469 17.828125 15.050781 17.910156 15.140625 17.910156 C 15.25 17.914062 15.40625 17.757812 15.40625 17.640625 Z M 15.160156 17.304688 C 15.394531 17.304688 15.566406 17.441406 15.566406 17.640625 C 15.566406 17.859375 15.367188 18.054688 15.144531 18.066406 C 14.925781 18.078125 14.8125 17.894531 14.789062 17.644531 C 14.773438 17.453125 14.941406 17.308594 15.160156 17.304688 " fill-opacity="1" fill-rule="nonzero"/><path fill="#dfe9e4" d="M 25.019531 25.339844 C 24.992188 25.335938 24.96875 25.34375 24.957031 25.402344 C 24.9375 25.5 25.011719 25.535156 25.09375 25.550781 C 25.152344 25.5625 25.214844 25.582031 25.269531 25.566406 C 25.308594 25.554688 25.355469 25.496094 25.355469 25.457031 C 25.355469 25.425781 25.296875 25.378906 25.257812 25.363281 C 25.234375 25.355469 25.210938 25.355469 25.1875 25.359375 C 25.148438 25.363281 25.074219 25.351562 25.019531 25.339844 Z M 25.054688 25.714844 C 25.023438 25.707031 24.992188 25.699219 24.960938 25.6875 C 24.808594 25.632812 24.75 25.527344 24.78125 25.363281 C 24.796875 25.292969 24.820312 25.214844 24.851562 25.148438 C 24.914062 25.035156 25.007812 25.015625 25.121094 25.078125 C 25.1875 25.113281 25.25 25.160156 25.316406 25.195312 C 25.492188 25.285156 25.566406 25.398438 25.53125 25.527344 C 25.507812 25.601562 25.457031 25.660156 25.378906 25.695312 C 25.257812 25.75 25.105469 25.726562 25.054688 25.714844 " fill-opacity="1" fill-rule="nonzero"/><path fill="#dfe9e4" d="M 6.925781 20.785156 C 6.933594 20.972656 6.792969 21.160156 6.640625 21.167969 C 6.519531 21.171875 6.382812 21.046875 6.382812 20.925781 C 6.382812 20.800781 6.578125 20.59375 6.707031 20.582031 C 6.835938 20.574219 6.921875 20.652344 6.925781 20.785156 " fill-opacity="1" fill-rule="nonzero"/><path fill="#dfe9e4" d="M 19.808594 10.851562 C 19.8125 10.863281 19.816406 10.871094 19.824219 10.875 C 19.902344 10.925781 20.074219 10.863281 20.085938 10.777344 C 20.085938 10.742188 20.050781 10.695312 20.019531 10.675781 C 19.992188 10.660156 19.9375 10.683594 19.886719 10.71875 C 19.820312 10.765625 19.800781 10.839844 19.808594 10.851562 Z M 19.882812 11.054688 C 19.71875 11.058594 19.609375 10.945312 19.613281 10.785156 C 19.617188 10.597656 19.742188 10.484375 19.941406 10.484375 C 20.074219 10.488281 20.242188 10.644531 20.246094 10.777344 C 20.253906 10.910156 20.066406 11.054688 19.882812 11.054688 " fill-opacity="1" fill-rule="nonzero"/><path fill="#dfe9e4" d="M 25.125 9.164062 C 24.941406 9.175781 24.863281 9.101562 24.851562 8.910156 C 24.839844 8.769531 24.925781 8.660156 25.046875 8.652344 C 25.191406 8.648438 25.355469 8.789062 25.367188 8.929688 C 25.382812 9.070312 25.292969 9.15625 25.125 9.164062 " fill-opacity="1" fill-rule="nonzero"/><path fill="#dfe9e4" d="M 10.183594 17.871094 C 10.1875 17.792969 10.210938 17.734375 10.320312 17.714844 C 10.457031 17.6875 10.585938 17.648438 10.703125 17.761719 C 10.789062 17.839844 10.792969 17.90625 10.714844 17.992188 C 10.617188 18.101562 10.457031 18.148438 10.34375 18.105469 C 10.238281 18.066406 10.183594 17.996094 10.183594 17.871094 " fill-opacity="1" fill-rule="nonzero"/><path fill="#dfe9e4" d="M 5.511719 9.316406 C 5.511719 9.191406 5.554688 9.152344 5.675781 9.167969 C 5.695312 9.171875 5.71875 9.179688 5.742188 9.183594 C 5.910156 9.21875 5.984375 9.277344 5.964844 9.359375 C 5.945312 9.449219 5.792969 9.550781 5.695312 9.539062 C 5.585938 9.527344 5.515625 9.441406 5.511719 9.316406 " fill-opacity="1" fill-rule="nonzero"/><path fill="#dfe9e4" d="M 17.824219 22.121094 C 17.820312 22.019531 17.921875 21.917969 18.023438 21.914062 C 18.132812 21.910156 18.234375 22.027344 18.238281 22.164062 C 18.242188 22.273438 18.1875 22.328125 18.074219 22.332031 C 17.945312 22.335938 17.824219 22.234375 17.824219 22.121094 " fill-opacity="1" fill-rule="nonzero"/><path fill="#dfe9e4" d="M 12.214844 0.0117188 C 12.300781 0.0117188 12.371094 0.0859375 12.371094 0.171875 C 12.371094 0.269531 12.257812 0.382812 12.144531 0.386719 C 12.058594 0.390625 11.996094 0.328125 11.992188 0.230469 C 11.992188 0.136719 12.117188 0.0078125 12.214844 0.0117188 " fill-opacity="1" fill-rule="nonzero"/></svg>