<svg xmlns="http://www.w3.org/2000/svg" xmlns:xlink="http://www.w3.org/1999/xlink" width="500" zoomAndPan="magnify" viewBox="0 0 375 374.999991" height="500" preserveAspectRatio="xMidYMid meet" version="1.0"><defs><g/><clipPath id="01eff0a1f2"><path d="M 51.785156 147.183594 L 324.429688 147.183594 L 324.429688 187.5 L 51.785156 187.5 Z M 51.785156 147.183594 " clip-rule="nonzero"/></clipPath></defs><rect x="-37.5" width="450" fill="#ffffff" y="-37.499999" height="449.999989" fill-opacity="1"/><rect x="-37.5" width="450" fill="#ffffff" y="-37.499999" height="449.999989" fill-opacity="1"/><rect x="-37.5" width="450" fill="#ffffff" y="-37.499999" height="449.999989" fill-opacity="1"/><g fill="#000000" fill-opacity="1"><g transform="translate(57.501636, 232.270565)"><g><path d="M 57.8125 -135.152344 C 55.566406 -135.152344 54.492188 -133.394531 54.492188 -131.34375 L 54.492188 -80.953125 L 33.007812 -80.953125 L 33.007812 -131.34375 C 33.007812 -133.6875 32.03125 -135.152344 29.785156 -135.152344 L 10.253906 -135.152344 C 8.105469 -135.152344 7.03125 -133.6875 7.03125 -131.34375 L 7.03125 -3.710938 C 7.03125 -1.367188 8.007812 0 10.253906 0 L 29.785156 0 C 32.03125 0 33.007812 -1.367188 33.007812 -3.710938 L 33.007812 -57.421875 L 54.492188 -57.421875 L 54.492188 -3.710938 C 54.492188 -1.367188 55.664062 0 57.8125 0 L 76.953125 0 C 79.488281 0 80.464844 -1.367188 80.464844 -3.710938 L 80.464844 -131.441406 C 80.464844 -134.273438 78.902344 -135.152344 77.246094 -135.152344 Z M 57.8125 -135.152344 "/></g></g></g><g fill="#000000" fill-opacity="1"><g transform="translate(155.097097, 232.270565)"><g><path d="M 33.007812 -111.421875 L 42.675781 -111.421875 C 49.316406 -111.421875 53.90625 -107.613281 53.90625 -99.410156 L 53.90625 -35.449219 C 53.90625 -28.808594 49.707031 -23.730469 43.164062 -23.535156 L 33.007812 -23.535156 Z M 7.03125 -3.710938 C 7.03125 -1.367188 8.105469 0 10.351562 0 L 44.433594 0 C 64.355469 -0.195312 79.878906 -12.207031 79.878906 -34.667969 L 79.878906 -100.484375 C 79.878906 -122.847656 64.453125 -134.957031 44.238281 -135.152344 L 10.351562 -135.152344 C 8.300781 -135.152344 7.03125 -133.6875 7.03125 -131.34375 Z M 7.03125 -3.710938 "/></g></g></g><g fill="#000000" fill-opacity="1"><g transform="translate(249.860602, 232.270565)"><g><path d="M 62.402344 -130.953125 C 62.402344 -133.785156 61.425781 -135.152344 58.886719 -135.152344 L 39.160156 -135.152344 C 38.085938 -135.152344 36.425781 -134.371094 36.425781 -131.441406 L 36.425781 -34.179688 C 36.425781 -27.050781 32.8125 -21.386719 25.195312 -21.386719 C 20.703125 -21.386719 16.40625 -23.632812 13.574219 -26.5625 C 12.695312 -27.539062 11.71875 -28.027344 10.742188 -28.027344 C 9.765625 -28.027344 8.789062 -27.539062 8.007812 -26.5625 L -0.976562 -15.234375 C -2.441406 -13.378906 -0.976562 -10.449219 -0.0976562 -9.375 C 6.445312 -1.464844 16.699219 2.148438 26.5625 2.148438 C 45.996094 2.148438 62.402344 -11.230469 62.402344 -32.714844 Z M 62.402344 -130.953125 "/></g></g></g><g clip-path="url(#01eff0a1f2)"><path fill="#ffffff" d="M 51.785156 147.183594 L 324.636719 147.183594 L 324.636719 187.796875 L 51.785156 187.796875 Z M 51.785156 147.183594 " fill-opacity="1" fill-rule="nonzero"/></g><g fill="#000000" fill-opacity="1"><g transform="translate(80.689173, 173.155258)"><g><path d="M 5.199219 -12.160156 C 5 -12.160156 4.902344 -12 4.902344 -11.816406 L 4.902344 -7.28125 L 2.96875 -7.28125 L 2.96875 -11.816406 C 2.96875 -12.027344 2.882812 -12.160156 2.679688 -12.160156 L 0.921875 -12.160156 C 0.730469 -12.160156 0.632812 -12.027344 0.632812 -11.816406 L 0.632812 -0.332031 C 0.632812 -0.121094 0.71875 0 0.921875 0 L 2.679688 0 C 2.882812 0 2.96875 -0.121094 2.96875 -0.332031 L 2.96875 -5.164062 L 4.902344 -5.164062 L 4.902344 -0.332031 C 4.902344 -0.121094 5.007812 0 5.199219 0 L 6.921875 0 C 7.152344 0 7.238281 -0.121094 7.238281 -0.332031 L 7.238281 -11.824219 C 7.238281 -12.078125 7.097656 -12.160156 6.949219 -12.160156 Z M 5.199219 -12.160156 "/></g></g></g><g fill="#000000" fill-opacity="1"><g transform="translate(97.837796, 173.155258)"><g><path d="M 2.96875 -11.816406 C 2.96875 -12.027344 2.882812 -12.160156 2.679688 -12.160156 L 0.921875 -12.160156 C 0.738281 -12.160156 0.632812 -12.027344 0.632812 -11.816406 L 0.632812 -0.332031 C 0.632812 -0.121094 0.71875 0 0.921875 0 L 2.679688 0 C 2.882812 0 2.96875 -0.121094 2.96875 -0.332031 Z M 2.96875 -11.816406 "/></g></g></g><g fill="#000000" fill-opacity="1"><g transform="translate(110.717715, 173.155258)"><g><path d="M 4.859375 -7.527344 C 4.859375 -6.933594 4.488281 -6.535156 3.785156 -6.535156 L 2.96875 -6.535156 L 2.96875 -10.023438 L 3.847656 -10.023438 C 4.453125 -10.023438 4.859375 -9.621094 4.859375 -8.988281 Z M 6.808594 -0.0078125 C 7.046875 -0.0078125 7.125 -0.21875 7.125 -0.378906 L 7.125 -1.960938 C 7.125 -3.714844 6.738281 -4.824219 5.949219 -5.492188 C 6.660156 -5.964844 7.203125 -6.6875 7.203125 -7.730469 L 7.203125 -8.988281 C 7.203125 -10.734375 5.84375 -12.160156 4.03125 -12.160156 L 0.929688 -12.160156 C 0.746094 -12.160156 0.632812 -12.027344 0.632812 -11.816406 L 0.632812 -0.324219 C 0.632812 -0.121094 0.71875 0 0.921875 0 L 2.679688 0 C 2.871094 0 2.96875 -0.121094 2.96875 -0.324219 L 2.96875 -4.726562 C 4.171875 -4.648438 4.789062 -3.9375 4.789062 -2.242188 L 4.789062 -0.402344 C 4.789062 -0.140625 4.988281 -0.0078125 5.191406 -0.0078125 Z M 6.808594 -0.0078125 "/></g></g></g><g fill="#000000" fill-opacity="1"><g transform="translate(127.664317, 173.155258)"><g><path d="M 2.96875 -2.117188 L 2.96875 -5.09375 L 5.535156 -5.09375 C 5.703125 -5.09375 5.816406 -5.183594 5.816406 -5.394531 L 5.816406 -6.898438 C 5.816406 -7.117188 5.683594 -7.203125 5.535156 -7.203125 L 2.96875 -7.203125 L 2.96875 -10.023438 L 6.183594 -10.023438 C 6.34375 -10.023438 6.429688 -10.128906 6.429688 -10.339844 L 6.429688 -11.832031 C 6.429688 -12.054688 6.34375 -12.160156 6.183594 -12.160156 L 0.929688 -12.160156 C 0.746094 -12.160156 0.632812 -12.027344 0.632812 -11.816406 L 0.632812 -0.332031 C 0.632812 -0.121094 0.730469 0 0.929688 0 L 6.230469 0 C 6.371094 0 6.484375 -0.0976562 6.484375 -0.308594 L 6.484375 -1.820312 C 6.484375 -2.019531 6.371094 -2.117188 6.230469 -2.117188 Z M 2.96875 -2.117188 "/></g></g></g><g fill="#000000" fill-opacity="1"><g transform="translate(143.618404, 173.155258)"><g><path d="M 2.96875 -10.023438 L 3.839844 -10.023438 C 4.4375 -10.023438 4.847656 -9.679688 4.847656 -8.945312 L 4.847656 -3.1875 C 4.847656 -2.589844 4.472656 -2.136719 3.882812 -2.117188 L 2.96875 -2.117188 Z M 0.632812 -0.332031 C 0.632812 -0.121094 0.730469 0 0.929688 0 L 3.996094 0 C 5.789062 -0.015625 7.1875 -1.097656 7.1875 -3.117188 L 7.1875 -9.039062 C 7.1875 -11.050781 5.796875 -12.140625 3.980469 -12.160156 L 0.929688 -12.160156 C 0.746094 -12.160156 0.632812 -12.027344 0.632812 -11.816406 Z M 0.632812 -0.332031 "/></g></g></g><g fill="#000000" fill-opacity="1"><g transform="translate(160.512303, 173.155258)"><g><path d="M 4.929688 -6.703125 C 4.929688 -6.851562 4.8125 -6.949219 4.699219 -6.949219 L 0.667969 -6.949219 C 0.570312 -6.949219 0.4375 -6.851562 0.4375 -6.695312 L 0.4375 -5.480469 C 0.4375 -5.304688 0.597656 -5.226562 0.660156 -5.226562 L 4.691406 -5.226562 C 4.789062 -5.226562 4.929688 -5.332031 4.929688 -5.472656 Z M 4.929688 -6.703125 "/></g></g></g><g fill="#000000" fill-opacity="1"><g transform="translate(175.157667, 173.155258)"><g><path d="M 2.96875 -10.023438 L 3.839844 -10.023438 C 4.4375 -10.023438 4.847656 -9.679688 4.847656 -8.945312 L 4.847656 -3.1875 C 4.847656 -2.589844 4.472656 -2.136719 3.882812 -2.117188 L 2.96875 -2.117188 Z M 0.632812 -0.332031 C 0.632812 -0.121094 0.730469 0 0.929688 0 L 3.996094 0 C 5.789062 -0.015625 7.1875 -1.097656 7.1875 -3.117188 L 7.1875 -9.039062 C 7.1875 -11.050781 5.796875 -12.140625 3.980469 -12.160156 L 0.929688 -12.160156 C 0.746094 -12.160156 0.632812 -12.027344 0.632812 -11.816406 Z M 0.632812 -0.332031 "/></g></g></g><g fill="#000000" fill-opacity="1"><g transform="translate(192.051566, 173.155258)"><g><path d="M 4.859375 -7.527344 C 4.859375 -6.933594 4.488281 -6.535156 3.785156 -6.535156 L 2.96875 -6.535156 L 2.96875 -10.023438 L 3.847656 -10.023438 C 4.453125 -10.023438 4.859375 -9.621094 4.859375 -8.988281 Z M 6.808594 -0.0078125 C 7.046875 -0.0078125 7.125 -0.21875 7.125 -0.378906 L 7.125 -1.960938 C 7.125 -3.714844 6.738281 -4.824219 5.949219 -5.492188 C 6.660156 -5.964844 7.203125 -6.6875 7.203125 -7.730469 L 7.203125 -8.988281 C 7.203125 -10.734375 5.84375 -12.160156 4.03125 -12.160156 L 0.929688 -12.160156 C 0.746094 -12.160156 0.632812 -12.027344 0.632812 -11.816406 L 0.632812 -0.324219 C 0.632812 -0.121094 0.71875 0 0.921875 0 L 2.679688 0 C 2.871094 0 2.96875 -0.121094 2.96875 -0.324219 L 2.96875 -4.726562 C 4.171875 -4.648438 4.789062 -3.9375 4.789062 -2.242188 L 4.789062 -0.402344 C 4.789062 -0.140625 4.988281 -0.0078125 5.191406 -0.0078125 Z M 6.808594 -0.0078125 "/></g></g></g><g fill="#000000" fill-opacity="1"><g transform="translate(208.99817, 173.155258)"><g><path d="M 2.96875 -2.117188 L 2.96875 -5.09375 L 5.535156 -5.09375 C 5.703125 -5.09375 5.816406 -5.183594 5.816406 -5.394531 L 5.816406 -6.898438 C 5.816406 -7.117188 5.683594 -7.203125 5.535156 -7.203125 L 2.96875 -7.203125 L 2.96875 -10.023438 L 6.183594 -10.023438 C 6.34375 -10.023438 6.429688 -10.128906 6.429688 -10.339844 L 6.429688 -11.832031 C 6.429688 -12.054688 6.34375 -12.160156 6.183594 -12.160156 L 0.929688 -12.160156 C 0.746094 -12.160156 0.632812 -12.027344 0.632812 -11.816406 L 0.632812 -0.332031 C 0.632812 -0.121094 0.730469 0 0.929688 0 L 6.230469 0 C 6.371094 0 6.484375 -0.0976562 6.484375 -0.308594 L 6.484375 -1.820312 C 6.484375 -2.019531 6.371094 -2.117188 6.230469 -2.117188 Z M 2.96875 -2.117188 "/></g></g></g><g fill="#000000" fill-opacity="1"><g transform="translate(224.952263, 173.155258)"><g><path d="M 2.898438 -9.171875 C 2.898438 -9.726562 3.242188 -10.226562 3.839844 -10.226562 C 4.429688 -10.226562 4.769531 -9.726562 4.769531 -9.171875 L 4.769531 -4.945312 L 2.898438 -4.945312 Z M 7.117188 -9.304688 C 7.117188 -10.992188 5.585938 -12.351562 3.832031 -12.351562 C 2.074219 -12.351562 0.554688 -10.992188 0.554688 -9.304688 L 0.554688 -0.34375 C 0.554688 -0.15625 0.648438 0 0.78125 0 L 2.636719 0 C 2.847656 0 2.898438 -0.148438 2.898438 -0.34375 L 2.898438 -2.898438 L 4.769531 -2.898438 L 4.769531 -0.351562 C 4.769531 -0.167969 4.875 0 5.050781 0 L 6.835938 0 C 7.035156 0 7.117188 -0.175781 7.117188 -0.351562 Z M 7.117188 -9.304688 "/></g></g></g><g fill="#000000" fill-opacity="1"><g transform="translate(241.89009, 173.155258)"><g><path d="M 8.996094 -0.351562 C 8.996094 -0.167969 9.09375 0 9.277344 0 L 11.0625 0 C 11.253906 0 11.332031 -0.175781 11.332031 -0.351562 L 11.332031 -9.304688 C 11.332031 -10.992188 9.804688 -12.351562 8.046875 -12.351562 C 7.257812 -12.351562 6.511719 -12.078125 5.9375 -11.625 C 5.359375 -12.078125 4.613281 -12.351562 3.832031 -12.351562 C 2.074219 -12.351562 0.554688 -10.992188 0.554688 -9.304688 L 0.554688 -0.34375 C 0.554688 -0.15625 0.660156 0 0.78125 0 L 2.636719 0 C 2.847656 0 2.898438 -0.148438 2.898438 -0.34375 L 2.898438 -9.171875 C 2.898438 -9.726562 3.242188 -10.226562 3.839844 -10.226562 C 4.429688 -10.226562 4.769531 -9.726562 4.769531 -9.171875 L 4.769531 -0.34375 C 4.769531 -0.15625 4.882812 0 5.007812 0 L 6.863281 0 C 7.070312 0 7.117188 -0.148438 7.117188 -0.332031 L 7.117188 -9.207031 C 7.132812 -9.742188 7.476562 -10.226562 8.054688 -10.226562 C 8.644531 -10.226562 8.996094 -9.726562 8.996094 -9.171875 Z M 8.996094 -0.351562 "/></g></g></g><g fill="#000000" fill-opacity="1"><g transform="translate(263.04392, 173.155258)"><g><path d="M 4.929688 -6.703125 C 4.929688 -6.851562 4.8125 -6.949219 4.699219 -6.949219 L 0.667969 -6.949219 C 0.570312 -6.949219 0.4375 -6.851562 0.4375 -6.695312 L 0.4375 -5.480469 C 0.4375 -5.304688 0.597656 -5.226562 0.660156 -5.226562 L 4.691406 -5.226562 C 4.789062 -5.226562 4.929688 -5.332031 4.929688 -5.472656 Z M 4.929688 -6.703125 "/></g></g></g><g fill="#000000" fill-opacity="1"><g transform="translate(277.68929, 173.155258)"><g><path d="M 5.613281 -11.78125 C 5.613281 -12.035156 5.527344 -12.160156 5.296875 -12.160156 L 3.523438 -12.160156 C 3.425781 -12.160156 3.277344 -12.089844 3.277344 -11.824219 L 3.277344 -3.074219 C 3.277344 -2.433594 2.953125 -1.925781 2.265625 -1.925781 C 1.863281 -1.925781 1.476562 -2.125 1.222656 -2.390625 C 1.140625 -2.476562 1.054688 -2.519531 0.964844 -2.519531 C 0.878906 -2.519531 0.789062 -2.476562 0.71875 -2.390625 L -0.0859375 -1.371094 C -0.21875 -1.203125 -0.0859375 -0.941406 -0.0078125 -0.84375 C 0.578125 -0.132812 1.503906 0.191406 2.390625 0.191406 C 4.136719 0.191406 5.613281 -1.011719 5.613281 -2.941406 Z M 5.613281 -11.78125 "/></g></g></g><g fill="#000000" fill-opacity="1"><g transform="translate(293.151515, 173.155258)"><g><path d="M 7.003906 -9.296875 C 7.003906 -11.210938 5.472656 -12.34375 3.707031 -12.34375 C 1.949219 -12.34375 0.4375 -11.203125 0.4375 -9.296875 L 0.4375 -2.855469 C 0.4375 -0.992188 1.949219 0.191406 3.707031 0.191406 C 5.472656 0.191406 7.003906 -0.949219 7.003906 -2.855469 Z M 3.726562 -10.234375 C 4.3125 -10.234375 4.664062 -9.726562 4.664062 -9.164062 L 4.664062 -2.925781 C 4.664062 -2.371094 4.3125 -1.925781 3.707031 -1.925781 C 3.109375 -1.925781 2.777344 -2.425781 2.777344 -2.976562 L 2.777344 -9.164062 C 2.777344 -9.726562 3.128906 -10.234375 3.726562 -10.234375 Z M 3.726562 -10.234375 "/></g></g></g><g fill="#000000" fill-opacity="1"><g transform="translate(309.860964, 173.155258)"><g><path d="M 4.675781 -3.117188 C 4.675781 -2.644531 4.339844 -2.117188 3.714844 -2.117188 L 2.800781 -2.117188 L 2.800781 -5.289062 L 3.671875 -5.289062 C 4.199219 -5.289062 4.675781 -4.9375 4.675781 -4.191406 Z M 4.59375 -8.117188 C 4.59375 -7.363281 3.960938 -7.175781 3.574219 -7.175781 L 2.800781 -7.175781 L 2.800781 -10.023438 L 3.601562 -10.023438 C 4.171875 -10.023438 4.59375 -9.707031 4.59375 -8.980469 Z M 6.816406 -9.109375 C 6.816406 -10.859375 5.5625 -12.160156 3.726562 -12.160156 L 0.929688 -12.160156 C 0.738281 -12.160156 0.632812 -12.027344 0.632812 -11.816406 L 0.632812 -0.332031 C 0.632812 -0.121094 0.730469 0 0.929688 0 L 3.996094 0 C 5.5625 0 7.019531 -1.175781 7.019531 -2.890625 L 7.019531 -3.980469 C 7.019531 -5.5 6.019531 -6.183594 5.527344 -6.316406 C 6.089844 -6.441406 6.816406 -7.257812 6.816406 -8.242188 Z M 6.816406 -9.109375 "/></g></g></g><path stroke-linecap="butt" transform="matrix(0.750298, -0.00106313, 0.00106271, 0.749999, 56.870588, 146.810527)" fill="none" stroke-linejoin="miter" d="M -0.000738617 0.997422 L 352.874617 0.997625 " stroke="#000000" stroke-width="2" stroke-opacity="1" stroke-miterlimit="4"/><path stroke-linecap="butt" transform="matrix(0.750833, -0.00214149, 0.00213911, 0.749997, 58.567141, 187.499988)" fill="none" stroke-linejoin="miter" d="M 0.00137538 1.000024 L 350.612189 1.001133 " stroke="#000000" stroke-width="2" stroke-opacity="1" stroke-miterlimit="4"/></svg>
