<svg version="1.2" xmlns="http://www.w3.org/2000/svg" viewBox="0 0 281 154" width="100" height="55">
	<title>logo-ts-svg</title>
	<defs>
		<clipPath clipPathUnits="userSpaceOnUse" id="cp1">
			<path d="m3.79 59.18h272.64v40.32h-272.64z"/>
		</clipPath>
	</defs>
	<style>
		.s0 { fill: #000000 } 
		.s1 { fill: #ffffff } 
		.s2 { fill: none;stroke: #000000;stroke-width: 1.5 } 
	</style>
	<g id="Layer">
		<g id="Layer">
			<g id="Layer">
				<path id="Layer" class="s0" d="m86.7 9.1c1.7 0 3.3 0.9 3.3 3.7v127.8c0 2.3-1 3.7-3.5 3.7h-19.2c-2.1 0-3.3-1.4-3.3-3.7v-53.8h-21.5v53.8c0 2.3-1 3.7-3.2 3.7h-19.5c-2.3 0-3.3-1.4-3.3-3.7v-127.7c0-2.3 1.1-3.8 3.3-3.8h19.5c2.2 0 3.2 1.5 3.2 3.8v50.4h21.5v-50.4c0-2 1.1-3.8 3.3-3.8z"/>
			</g>
		</g>
	</g>
	<g id="Layer">
		<g id="Layer">
			<g id="Layer">
				<path id="Layer" fill-rule="evenodd" class="s0" d="m114.1 12.9c0-2.3 1.3-3.8 3.3-3.8h33.9c20.3 0.2 35.7 12.3 35.7 34.7v65.8c0 22.5-15.5 34.5-35.5 34.7h-34.1c-2.2 0-3.3-1.4-3.3-3.7zm26 107.8h10.2c6.5-0.2 10.7-5.3 10.7-11.9v-64c0-8.2-4.6-12-11.2-12h-9.7z"/>
			</g>
		</g>
	</g>
	<g id="Layer">
		<g id="Layer">
			<g id="Layer">
				<path id="Layer" class="s0" d="m264.3 111.6c0 21.4-16.4 34.8-35.9 34.8-9.8 0-20.1-3.6-26.6-11.5-0.9-1.1-2.4-4-0.9-5.9l9-11.3c0.7-1 1.7-1.5 2.7-1.5 1 0 2 0.5 2.8 1.5 2.9 2.9 7.2 5.2 11.7 5.2 7.6 0 11.2-5.7 11.2-12.8v-97.3c0-2.9 1.6-3.7 2.7-3.7h19.7c2.6 0 3.6 1.4 3.6 4.2z"/>
			</g>
		</g>
	</g>
	<g id="Clip-Path" clip-path="url(#cp1)">
		<g id="Layer">
			<path id="Layer" class="s1" d="m3.8 59.2h272.8v40.6h-272.8z"/>
		</g>
	</g>
	<g id="Layer">
		<g id="Layer">
			<g id="Layer">
				<path id="Layer" class="s0" d="m39.6 73c0.2 0 0.3 0.1 0.3 0.3v11.5c0 0.2-0.1 0.4-0.3 0.4h-1.7q-0.3-0.1-0.3-0.4v-4.8h-1.9v4.8q0 0.3-0.3 0.4h-1.8q-0.3-0.1-0.3-0.4v-11.5q0-0.3 0.3-0.3h1.8q0.3 0 0.3 0.3v4.6h1.9v-4.6c0-0.1 0.1-0.3 0.3-0.3z"/>
			</g>
		</g>
	</g>
	<g id="Layer">
		<g id="Layer">
			<g id="Layer">
				<path id="Layer" class="s0" d="m52.8 84.8q0 0.3-0.3 0.4h-1.7q-0.3-0.1-0.3-0.4v-11.5q0-0.3 0.3-0.3h1.7q0.3 0 0.3 0.3z"/>
			</g>
		</g>
	</g>
	<g id="Layer">
		<g id="Layer">
			<g id="Layer">
				<path id="Layer" fill-rule="evenodd" class="s0" d="m67.9 85.1c-0.2 0-0.4-0.1-0.4-0.3v-1.9c0-1.7-0.6-2.4-1.8-2.5v4.4q0 0.3-0.3 0.4h-1.8q-0.3-0.1-0.2-0.4v-11.5c0-0.2 0.1-0.3 0.2-0.3h3.1c1.9 0 3.2 1.4 3.2 3.2v1.2c0 1.1-0.5 1.8-1.2 2.3 0.8 0.6 1.1 1.7 1.1 3.5v1.6c0 0.1 0 0.3-0.3 0.3zm-0.3-8.9c0-0.7-0.4-1.1-1-1.1h-0.9v3.5h0.8c0.7 0 1.1-0.4 1.1-1z"/>
			</g>
		</g>
	</g>
	<g id="Layer">
		<g id="Layer">
			<g id="Layer">
				<path id="Layer" class="s0" d="m85.9 83c0.1 0 0.2 0.1 0.2 0.3v1.5c0 0.3-0.1 0.4-0.2 0.4h-5.3q-0.3-0.1-0.3-0.4v-11.5c0-0.2 0.1-0.3 0.3-0.3h5.2q0.3 0 0.3 0.3v1.5q0 0.3-0.3 0.3h-3.2v2.9h2.6c0.1 0 0.3 0 0.3 0.3v1.5c0 0.2-0.1 0.3-0.3 0.3h-2.6v2.9z"/>
			</g>
		</g>
	</g>
	<g id="Layer">
		<g id="Layer">
			<g id="Layer">
				<path id="Layer" fill-rule="evenodd" class="s0" d="m96.3 73.3c0-0.2 0.1-0.3 0.2-0.3h3.1c1.8 0 3.2 1.1 3.2 3.1v5.9c0 2.1-1.4 3.1-3.2 3.2h-3.1q-0.2-0.1-0.2-0.4zm2.3 9.7h0.9c0.6 0 1-0.5 1-1v-5.8c0-0.7-0.4-1.1-1-1.1h-0.9z"/>
			</g>
		</g>
	</g>
	<g id="Layer">
		<g id="Layer">
			<g id="Layer">
				<path id="Layer" class="s0" d="m117.4 79.7c0 0.1-0.1 0.2-0.2 0.2h-4c-0.1 0-0.3 0-0.3-0.2v-1.2c0-0.2 0.2-0.3 0.3-0.3h4c0.1 0 0.2 0.1 0.2 0.3z"/>
			</g>
		</g>
	</g>
	<g id="Layer">
		<g id="Layer">
			<g id="Layer">
				<path id="Layer" fill-rule="evenodd" class="s0" d="m127.8 73.3c0-0.2 0.1-0.3 0.3-0.3h3c1.9 0 3.2 1.1 3.2 3.1v5.9c0 2.1-1.4 3.1-3.1 3.2h-3.1q-0.3-0.1-0.3-0.4zm2.3 9.7h0.9c0.6 0 1-0.5 1-1v-5.8c0-0.7-0.4-1.1-1-1.1h-0.9z"/>
			</g>
		</g>
	</g>
	<g id="Layer">
		<g id="Layer">
			<g id="Layer">
				<path id="Layer" fill-rule="evenodd" class="s0" d="m149.2 85.1c-0.2 0-0.4-0.1-0.4-0.3v-1.9c0-1.7-0.6-2.4-1.8-2.5v4.4q0 0.3-0.3 0.4h-1.7q-0.3-0.1-0.3-0.4v-11.5c0-0.2 0.1-0.3 0.3-0.3h3.1c1.8 0 3.2 1.4 3.2 3.2v1.2c0 1.1-0.6 1.8-1.3 2.3 0.8 0.6 1.2 1.7 1.2 3.5v1.6c0 0.1-0.1 0.3-0.3 0.3zm-0.4-8.9c0-0.7-0.4-1.1-1-1.1h-0.9v3.5h0.9c0.7 0 1-0.4 1-1z"/>
			</g>
		</g>
	</g>
	<g id="Layer">
		<g id="Layer">
			<g id="Layer">
				<path id="Layer" class="s0" d="m167.2 83c0.2 0 0.3 0.1 0.3 0.3v1.5c0 0.3-0.1 0.4-0.3 0.4h-5.3q-0.3-0.1-0.3-0.4v-11.5c0-0.2 0.1-0.3 0.3-0.3h5.3q0.2 0 0.2 0.3v1.5q0 0.3-0.2 0.3h-3.2v2.9h2.5c0.2 0 0.3 0 0.3 0.3v1.5c0 0.2-0.1 0.3-0.3 0.3h-2.5v2.9z"/>
			</g>
		</g>
	</g>
	<g id="Layer">
		<g id="Layer">
			<g id="Layer">
				<path id="Layer" fill-rule="evenodd" class="s0" d="m184.1 84.8c0 0.2-0.1 0.4-0.3 0.4h-1.8c-0.2 0-0.3-0.2-0.3-0.4v-2.5h-1.8v2.5c0 0.2-0.1 0.4-0.3 0.4h-1.9c-0.1 0-0.2-0.2-0.2-0.4v-8.9c0-1.7 1.5-3.1 3.3-3.1 1.7 0 3.3 1.4 3.3 3.1zm-4.2-4.6h1.8v-4.3c0-0.5-0.3-1-0.9-1-0.6 0-0.9 0.5-0.9 1z"/>
			</g>
		</g>
	</g>
	<g id="Layer">
		<g id="Layer">
			<g id="Layer">
				<path id="Layer" class="s0" d="m202.9 76c0-0.6-0.4-1.1-1-1.1-0.5 0-0.9 0.5-0.9 1v8.9c0 0.2 0 0.4-0.2 0.4h-1.9c-0.1 0-0.2-0.2-0.2-0.4v-8.8c0-0.6-0.4-1.1-1-1.1-0.6 0-0.9 0.5-0.9 1.1v8.8c0 0.2-0.1 0.4-0.3 0.4h-1.8c-0.1 0-0.3-0.2-0.3-0.4v-8.9c0-1.7 1.6-3.1 3.3-3.1 0.8 0 1.5 0.3 2.1 0.7 0.6-0.4 1.3-0.7 2.1-0.7 1.8 0 3.3 1.4 3.3 3.1v8.9c0 0.2-0.1 0.4-0.2 0.4h-1.8c-0.2 0-0.3-0.2-0.3-0.4z"/>
			</g>
		</g>
	</g>
	<g id="Layer">
		<g id="Layer">
			<g id="Layer">
				<path id="Layer" class="s0" d="m220 79.7c0 0.1-0.2 0.2-0.3 0.2h-4c-0.1 0-0.2 0-0.2-0.2v-1.2c0-0.2 0.1-0.3 0.2-0.3h4c0.2 0 0.3 0.1 0.3 0.3z"/>
			</g>
		</g>
	</g>
	<g id="Layer">
		<g id="Layer">
			<g id="Layer">
				<path id="Layer" class="s0" d="m235.3 82.2c0 1.9-1.5 3.1-3.2 3.1-0.9 0-1.8-0.3-2.4-1-0.1-0.1-0.2-0.3-0.1-0.5l0.8-1q0.1-0.2 0.3-0.2 0.1 0 0.2 0.2c0.3 0.2 0.7 0.4 1.1 0.4 0.6 0 1-0.5 1-1.1v-8.8c0-0.2 0.1-0.3 0.2-0.3h1.8q0.3 0 0.3 0.4z"/>
			</g>
		</g>
	</g>
	<g id="Layer">
		<g id="Layer">
			<g id="Layer">
				<path id="Layer" fill-rule="evenodd" class="s0" d="m252.2 82.3c0 1.9-1.6 3-3.3 3-1.8 0-3.3-1.1-3.3-3v-6.4c0-1.9 1.5-3.1 3.3-3.1 1.7 0 3.3 1.1 3.3 3.1zm-4.3-6.4v6.2c0 0.6 0.4 1.1 1 1.1 0.6 0 0.9-0.5 0.9-1v-6.3c0-0.5-0.3-1-0.9-1-0.6 0-1 0.5-1 1z"/>
			</g>
		</g>
	</g>
	<g id="Layer">
		<g id="Layer">
			<g id="Layer">
				<path id="Layer" fill-rule="evenodd" class="s0" d="m268.7 76.9c0 1-0.7 1.8-1.3 1.9 0.5 0.2 1.5 0.9 1.5 2.4v1.1c0 1.7-1.5 2.9-3 2.9h-3.1q-0.3-0.1-0.3-0.4v-11.5q0-0.3 0.3-0.3h2.8c1.8 0 3.1 1.3 3.1 3zm-2.2-0.7c0-0.7-0.5-1-1-1h-0.8v2.8h0.7c0.4 0 1.1-0.2 1.1-0.9zm0 4.8c0-0.8-0.4-1.1-1-1.1h-0.8v3.1h0.9c0.6 0 0.9-0.5 0.9-1z"/>
			</g>
		</g>
	</g>
	<path id="Layer" class="s2" d="m8.9 59.6l264.7-0.4"/>
	<path id="Layer" class="s2" d="m10.6 100.3l263.2-0.8"/>
</svg>