<svg xmlns="http://www.w3.org/2000/svg" xmlns:xlink="http://www.w3.org/1999/xlink" width="200" zoomAndPan="magnify" viewBox="0 0 150 60" height="80" preserveAspectRatio="xMidYMid meet" version="1.0"><defs><g/><clipPath id="65f9a59240"><path d="M 3.234375 1.703125 L 45.984375 1.703125 L 45.984375 57.953125 L 3.234375 57.953125 Z M 3.234375 1.703125 " clip-rule="nonzero"/></clipPath></defs><g clip-path="url(#65f9a59240)"><path fill="#5271ff" d="M 28.882812 34.101562 L 28.882812 57.9375 L 20.335938 49.398438 L 20.335938 34.101562 Z M 45.984375 27.328125 L 45.984375 51.511719 L 37.4375 42.96875 L 37.4375 18.792969 Z M 11.78125 16.671875 L 11.78125 40.855469 L 3.234375 32.316406 L 3.234375 8.140625 Z M 28.882812 10.253906 L 28.882812 25.558594 L 20.335938 25.558594 L 20.335938 1.71875 Z M 28.882812 10.253906 " fill-opacity="1" fill-rule="evenodd"/></g><g fill="#5271ff" fill-opacity="1"><g transform="translate(52.57369, 48.323609)"><g><path d="M 31.996094 0 C 36.136719 0 39.527344 -3.386719 39.527344 -7.527344 L 39.527344 -30.113281 C 39.527344 -34.257812 36.136719 -37.644531 31.996094 -37.644531 L 1.882812 -37.644531 L 1.882812 0 Z M 9.410156 -30.113281 L 31.996094 -30.113281 L 31.996094 -7.527344 L 9.410156 -7.527344 Z M 9.410156 -30.113281 "/></g></g></g><g fill="#5271ff" fill-opacity="1"><g transform="translate(93.978367, 48.323609)"><g><path d="M 31.996094 0 C 36.183594 0 39.527344 -3.433594 39.527344 -7.527344 L 39.527344 -37.644531 L 16.941406 -37.644531 L 16.941406 -30.113281 L 31.996094 -30.113281 L 31.996094 -7.527344 L 9.410156 -7.527344 L 9.410156 -15.058594 L 1.882812 -15.058594 L 1.882812 -7.527344 C 1.882812 -3.386719 5.269531 0 9.410156 0 Z M 31.996094 0 "/></g></g></g></svg>